M48
INCH,TZ
T1C0.0118
T2C0.0315
T3C0.0354
T4C0.0394
T5C0.0433
T6C0.0472
T7C0.1260
%
G90
G05
T1
X21196Y-52289
X21500Y-42934
X25431Y-47529
X26330Y-48924
X27165Y-49263
X27848Y-34092
X28974Y-42787
X29102Y-49944
X30000Y-39000
X30143Y-48923
X30875Y-32972
X31149Y-43262
X31452Y-42960
X31486Y-49487
X31729Y-51145
X32544Y-43521
X33328Y-26550
X33598Y-49417
X33774Y-51431
X33892Y-44519
X33892Y-46329
X33911Y-44071
X33979Y-42906
X34000Y-22040
X34851Y-52041
X34930Y-47825
X35563Y-40829
X36023Y-51623
X36459Y-47410
X36566Y-22312
X37015Y-37071
X37068Y-40829
X37332Y-22322
X37358Y-31804
X37695Y-23449
X37716Y-36868
X37955Y-32581
X37971Y-37063
X38101Y-25995
X38434Y-37116
X38614Y-31803
X39187Y-36869
X39477Y-39664
X39617Y-33326
X39681Y-59611
X39683Y-31703
X40534Y-28018
X40793Y-37335
X41802Y-51734
X42234Y-27850
X42235Y-51357
X42368Y-41617
X42500Y-47597
X42760Y-22392
X42977Y-44247
X43745Y-42850
X43846Y-33972
X43990Y-35016
X44075Y-34190
X45501Y-48778
X45784Y-28450
X46361Y-32416
X46468Y-21340
X46807Y-22676
X47571Y-52476
X47890Y-51901
X48200Y-45591
X48347Y-34237
X48500Y-30622
X48999Y-34211
X49179Y-48918
X49353Y-47016
X50035Y-56965
X50037Y-21516
X50040Y-51948
X51263Y-52402
X51394Y-22026
X51441Y-53468
X52385Y-40314
X52845Y-31510
X53966Y-24537
X54143Y-47012
X54281Y-39562
X54472Y-49905
X54644Y-41035
X54916Y-22839
X55022Y-25999
X55845Y-17536
X55862Y-42116
X55897Y-51655
X55921Y-30995
X56019Y-23064
X56321Y-38662
X56824Y-37665
X57269Y-25836
X59431Y-53415
X59440Y-20431
X59520Y-44065
X59679Y-42257
X59771Y-52271
X59782Y-28046
X60307Y-36115
X60426Y-33841
X60461Y-48363
X60544Y-32949
X60613Y-28367
X60842Y-19604
X60947Y-24318
X60986Y-31940
X61030Y-27705
X61550Y-23128
X61681Y-52003
X61764Y-36274
X62027Y-27537
X62749Y-39702
X63862Y-22500
X64025Y-43995
X64586Y-22111
X65217Y-27730
X65242Y-36254
X65416Y-48837
X65610Y-40584
X66297Y-50793
X66477Y-30498
X66684Y-53858
X67600Y-31587
X67659Y-46568
X67951Y-21927
X68553Y-21755
X68708Y-22292
X68894Y-45697
X69444Y-19100
X69482Y-49146
X69736Y-19348
X69774Y-41442
X69899Y-33525
X69901Y-29500
X70651Y-44052
X70651Y-48526
X70653Y-27988
X71000Y-38000
X71183Y-36307
X71336Y-45487
X71364Y-44548
X71681Y-32453
X71831Y-50595
X71863Y-35705
X71909Y-29904
X71931Y-52877
X71968Y-45638
X72708Y-46906
X73282Y-20361
X73386Y-25142
X73543Y-39371
X73673Y-42985
X73726Y-29709
X73745Y-15207
X73745Y-49013
X74001Y-52253
X74062Y-55213
X74134Y-23986
X74206Y-37335
X74209Y-38979
X74500Y-51716
X74573Y-22339
X74573Y-43337
X75374Y-31500
X76371Y-54407
X77417Y-52475
T2
X15341Y-26000
X16016Y-53500
X17000Y-53500
X17309Y-26000
X19500Y-22000
X19500Y-26000
X20000Y-42000
X20000Y-48000
X20000Y-53000
X20000Y-59000
X20500Y-15000
X20500Y-18000
X20531Y-50500
X21000Y-29000
X21000Y-42000
X21000Y-48000
X21000Y-53000
X21000Y-59000
X22000Y-42000
X22000Y-48000
X22000Y-53000
X22000Y-59000
X22500Y-22002
X22500Y-26002
X22500Y-50500
X22969Y-29000
X23000Y-42000
X23000Y-48000
X23000Y-53000
X23000Y-59000
X24000Y-22002
X24000Y-26002
X24000Y-42000
X24000Y-48000
X24000Y-53000
X24000Y-59000
X24579Y-50500
X25000Y-42000
X25000Y-48000
X25000Y-53000
X25000Y-59000
X25500Y-22002
X25500Y-26002
X26000Y-42000
X26000Y-48000
X26000Y-53000
X26000Y-59000
X26500Y-15000
X26500Y-18000
X26500Y-50500
X27000Y-21002
X27000Y-27002
X27000Y-42000
X27000Y-48000
X27000Y-53000
X27000Y-59000
X28000Y-21002
X28000Y-27002
X28000Y-42000
X28000Y-48000
X28000Y-53000
X28000Y-59000
X28500Y-15531
X28500Y-17500
X28500Y-50500
X29000Y-21002
X29000Y-27002
X29000Y-42000
X29000Y-48000
X29000Y-53000
X29000Y-59000
X30000Y-15000
X30000Y-18000
X30000Y-21002
X30000Y-27002
X30000Y-42000
X30000Y-48000
X30000Y-53000
X30000Y-59000
X31000Y-15000
X31000Y-18000
X31000Y-21002
X31000Y-27002
X31000Y-42000
X31000Y-48000
X31000Y-53000
X31000Y-59000
X32000Y-15000
X32000Y-18000
X32000Y-21002
X32000Y-27002
X32000Y-42000
X32000Y-48000
X32000Y-53000
X32000Y-59000
X32500Y-50500
X33000Y-15000
X33000Y-18000
X33000Y-21002
X33000Y-27002
X33000Y-42000
X33000Y-48000
X33000Y-53000
X33000Y-59000
X34000Y-15000
X34000Y-18000
X34000Y-21002
X34000Y-27002
X34000Y-29000
X34000Y-53000
X34000Y-59000
X34500Y-42000
X34500Y-43969
X35000Y-15000
X35000Y-18000
X35000Y-21002
X35000Y-27002
X35000Y-53000
X35000Y-59000
X35969Y-29000
X36000Y-15000
X36000Y-18000
X36000Y-21002
X36000Y-27002
X36000Y-42000
X36000Y-45000
X36000Y-53000
X36000Y-59000
X36031Y-47000
X36031Y-48500
X37000Y-15000
X37000Y-18000
X37000Y-21002
X37000Y-27002
X37000Y-42000
X37000Y-45000
X37000Y-53000
X37000Y-59000
X38000Y-21002
X38000Y-27002
X38000Y-42000
X38000Y-45000
X38000Y-47000
X38000Y-48500
X38000Y-53000
X38000Y-59000
X38500Y-15531
X38500Y-17500
X39000Y-21002
X39000Y-27002
X39000Y-42000
X39000Y-45000
X39000Y-53000
X39000Y-59000
X39031Y-47000
X39031Y-48500
X40000Y-15000
X40000Y-18000
X40000Y-21002
X40000Y-27002
X40000Y-42000
X40000Y-45000
X40500Y-57016
X40500Y-58984
X41000Y-15000
X41000Y-18000
X41000Y-21002
X41000Y-27002
X41000Y-42000
X41000Y-45000
X41000Y-47000
X41000Y-48500
X42000Y-15000
X42000Y-18000
X42000Y-21002
X42000Y-27002
X42000Y-42000
X42000Y-45000
X42500Y-50531
X42500Y-52500
X43000Y-15000
X43000Y-18000
X43000Y-21002
X43000Y-27002
X43000Y-42000
X43000Y-45000
X44000Y-15000
X44000Y-18000
X44000Y-21002
X44000Y-27002
X44000Y-50000
X44000Y-53000
X44500Y-30500
X44500Y-32469
X44500Y-40500
X44500Y-42469
X44500Y-45531
X44500Y-47500
X45000Y-15000
X45000Y-18000
X45000Y-21002
X45000Y-27002
X45000Y-50000
X45000Y-53000
X45500Y-35500
X45500Y-37469
X46000Y-15000
X46000Y-18000
X46000Y-21002
X46000Y-27002
X46000Y-30000
X46000Y-33000
X46000Y-39969
X46000Y-42969
X46000Y-45000
X46000Y-48000
X46000Y-50000
X46000Y-53000
X47000Y-30000
X47000Y-33000
X47000Y-35000
X47000Y-38000
X47000Y-39969
X47000Y-42969
X47000Y-45000
X47000Y-48000
X47000Y-50000
X47000Y-53000
X47500Y-15531
X47500Y-17500
X47500Y-22002
X47500Y-26002
X48000Y-30000
X48000Y-33000
X48000Y-35000
X48000Y-38000
X48000Y-39969
X48000Y-42969
X48000Y-45000
X48000Y-48000
X48000Y-50000
X48000Y-53000
X48998Y-15000
X48998Y-18000
X49000Y-22002
X49000Y-26002
X49000Y-30000
X49000Y-33000
X49000Y-35000
X49000Y-38000
X49000Y-39969
X49000Y-42969
X49000Y-45000
X49000Y-48000
X49000Y-50000
X49000Y-53000
X49998Y-15000
X49998Y-18000
X50000Y-30000
X50000Y-33000
X50000Y-35000
X50000Y-38000
X50000Y-39969
X50000Y-42969
X50000Y-45000
X50000Y-48000
X50000Y-50000
X50000Y-53000
X50500Y-22002
X50500Y-26002
X50998Y-15000
X50998Y-18000
X51000Y-30000
X51000Y-33000
X51000Y-35000
X51000Y-38000
X51000Y-39969
X51000Y-42969
X51000Y-45000
X51000Y-48000
X51000Y-50000
X51000Y-53000
X51998Y-15000
X51998Y-18000
X52000Y-21002
X52000Y-27002
X52000Y-30000
X52000Y-33000
X52000Y-35000
X52000Y-38000
X52000Y-39969
X52000Y-42969
X52000Y-45000
X52000Y-48000
X52000Y-50000
X52000Y-53000
X52998Y-15000
X52998Y-18000
X53000Y-21002
X53000Y-27002
X53000Y-30000
X53000Y-33000
X53000Y-35000
X53000Y-38000
X53000Y-39969
X53000Y-42969
X53000Y-45000
X53000Y-48000
X53000Y-50000
X53000Y-53000
X53500Y-55000
X53500Y-56500
X53500Y-58000
X53998Y-15000
X53998Y-18000
X54000Y-21002
X54000Y-27002
X54500Y-40500
X54500Y-42469
X54500Y-45531
X54500Y-47500
X54500Y-50531
X54500Y-52500
X54998Y-15000
X54998Y-18000
X55000Y-21002
X55000Y-27002
X56000Y-21002
X56000Y-27002
X56000Y-39969
X56000Y-42969
X56000Y-45000
X56000Y-48000
X56000Y-50000
X56000Y-53000
X56500Y-15531
X56500Y-17500
X56500Y-33000
X56500Y-34969
X57000Y-21002
X57000Y-27002
X57000Y-39969
X57000Y-42969
X57000Y-45000
X57000Y-48000
X57000Y-50000
X57000Y-53000
X57500Y-55000
X57500Y-56500
X57500Y-58000
X58000Y-14996
X58000Y-17996
X58000Y-21002
X58000Y-27002
X58000Y-31000
X58000Y-37000
X58000Y-39969
X58000Y-42969
X58000Y-45000
X58000Y-48000
X58000Y-50000
X58000Y-53000
X59000Y-14996
X59000Y-17996
X59000Y-21002
X59000Y-27002
X59000Y-31000
X59000Y-37000
X59000Y-39969
X59000Y-42969
X59000Y-45000
X59000Y-48000
X59000Y-50000
X59000Y-53000
X59016Y-29000
X60000Y-14996
X60000Y-17996
X60000Y-21002
X60000Y-27002
X60000Y-31000
X60000Y-37000
X60000Y-39969
X60000Y-42969
X60000Y-45000
X60000Y-48000
X60000Y-50000
X60000Y-53000
X60000Y-55000
X60000Y-56500
X60000Y-58000
X60984Y-29000
X61000Y-14996
X61000Y-17996
X61000Y-21002
X61000Y-27002
X61000Y-31000
X61000Y-37000
X61000Y-39969
X61000Y-42969
X61000Y-45000
X61000Y-48000
X61000Y-50000
X61000Y-53000
X62000Y-21002
X62000Y-27002
X62000Y-31000
X62000Y-37000
X62000Y-39969
X62000Y-42969
X62000Y-45000
X62000Y-48000
X62000Y-50000
X62000Y-53000
X62494Y-17470
X62516Y-15000
X63000Y-21002
X63000Y-27002
X63000Y-31000
X63000Y-37000
X63494Y-17470
X63500Y-40531
X63500Y-42500
X63500Y-45531
X63500Y-47500
X63500Y-50531
X63500Y-52500
X64000Y-21002
X64000Y-27002
X64000Y-31000
X64000Y-37000
X64000Y-55000
X64000Y-56500
X64000Y-58000
X64484Y-15000
X64494Y-17470
X65000Y-21002
X65000Y-27002
X65000Y-31000
X65000Y-37000
X65000Y-40000
X65000Y-43000
X65000Y-45000
X65000Y-48000
X65000Y-50000
X65000Y-53000
X66000Y-14500
X66000Y-18500
X66000Y-21002
X66000Y-27002
X66000Y-31000
X66000Y-37000
X66000Y-40000
X66000Y-43000
X66000Y-45000
X66000Y-48000
X66000Y-50000
X66000Y-53000
X66500Y-55000
X66500Y-56500
X66500Y-58000
X67000Y-21002
X67000Y-27002
X67000Y-31000
X67000Y-37000
X67000Y-40000
X67000Y-43000
X67000Y-45000
X67000Y-48000
X67000Y-50000
X67000Y-53000
X67500Y-14500
X67500Y-18500
X68000Y-21002
X68000Y-27002
X68000Y-31000
X68000Y-37000
X68000Y-40000
X68000Y-43000
X68000Y-45000
X68000Y-48000
X68000Y-50000
X68000Y-53000
X69000Y-14500
X69000Y-18500
X69000Y-21002
X69000Y-27002
X69000Y-31000
X69000Y-37000
X69000Y-40000
X69000Y-43000
X69000Y-45000
X69000Y-48000
X69000Y-50000
X69000Y-53000
X70000Y-21002
X70000Y-27002
X70000Y-31000
X70000Y-37000
X70000Y-40000
X70000Y-43000
X70000Y-45000
X70000Y-48000
X70000Y-50000
X70000Y-53000
X70500Y-14500
X70500Y-18500
X70500Y-55000
X70500Y-56500
X70500Y-58000
X71000Y-21002
X71000Y-27002
X71000Y-31000
X71000Y-37000
X71000Y-40000
X71000Y-43000
X71000Y-45000
X71000Y-48000
X71000Y-50000
X71000Y-53000
T3
X47500Y-56500
X48500Y-56500
X56079Y-61500
X57079Y-61500
X58079Y-61500
X59079Y-61500
X60079Y-61500
X61079Y-61500
X62079Y-61500
X63079Y-61500
X64079Y-61500
X65079Y-61500
T4
X13500Y-51000
X13500Y-52000
X13500Y-53000
X18000Y-62000
X19000Y-62000
X20000Y-62000
X21000Y-62000
X22000Y-62000
X23000Y-32000
X23000Y-38000
X23000Y-62000
X24000Y-32000
X24000Y-38000
X24000Y-62000
X25000Y-32000
X25000Y-38000
X25000Y-62000
X26000Y-32000
X26000Y-38000
X26000Y-62000
X27000Y-32000
X27000Y-38000
X27000Y-62000
X28000Y-32000
X28000Y-38000
X28000Y-62000
X29000Y-32000
X29000Y-38000
X29000Y-62000
X30000Y-32000
X30000Y-38000
X30000Y-62000
X31000Y-29000
X31000Y-32000
X31000Y-38000
X31000Y-62000
X32000Y-29000
X32000Y-32000
X32000Y-38000
X32000Y-62000
X33000Y-32000
X33000Y-38000
X33000Y-62000
X34000Y-32000
X34000Y-38000
X34000Y-62000
X35000Y-32000
X35000Y-38000
X35000Y-62000
X36000Y-32000
X36000Y-38000
X36000Y-62000
X37000Y-62000
X38000Y-62000
X39000Y-62000
X41000Y-50500
X41000Y-51500
X41000Y-52500
X45898Y-60126
X46443Y-61244
X46988Y-60126
X47533Y-61244
X48079Y-60126
X48624Y-61244
X49169Y-60126
X49715Y-61244
X50260Y-60126
X56000Y-29000
X57000Y-29000
X67579Y-61000
X67579Y-62000
X68579Y-61000
X68579Y-62000
X69579Y-61000
X69579Y-62000
X70579Y-61000
X70579Y-62000
X71579Y-61000
X71579Y-62000
X75000Y-19000
X75000Y-20000
X75000Y-21000
X75000Y-22000
X75000Y-23000
X75000Y-24000
X75000Y-25000
X75000Y-26000
X75000Y-27000
X75000Y-28000
X75000Y-29000
X75000Y-30000
X75000Y-31000
X75000Y-32000
X75000Y-33000
X75000Y-34000
X75000Y-35000
X75000Y-36000
X75000Y-37000
X75000Y-38000
X75000Y-39000
X75000Y-40000
X75000Y-41000
X75000Y-42000
X75000Y-43000
X75000Y-44000
X75000Y-45000
X75000Y-46000
X75000Y-47000
X75000Y-48000
X75000Y-49000
X75000Y-50000
X75000Y-51000
X75000Y-52000
X75000Y-53000
X75000Y-54000
X75000Y-55000
X75000Y-56000
X75000Y-57000
X75000Y-58000
X76000Y-19000
X76000Y-20000
X76000Y-21000
X76000Y-22000
X76000Y-23000
X76000Y-24000
X76000Y-25000
X76000Y-26000
X76000Y-27000
X76000Y-28000
X76000Y-29000
X76000Y-30000
X76000Y-31000
X76000Y-32000
X76000Y-33000
X76000Y-34000
X76000Y-35000
X76000Y-36000
X76000Y-37000
X76000Y-38000
X76000Y-39000
X76000Y-40000
X76000Y-41000
X76000Y-42000
X76000Y-43000
X76000Y-44000
X76000Y-45000
X76000Y-46000
X76000Y-47000
X76000Y-48000
X76000Y-49000
X76000Y-50000
X76000Y-51000
X76000Y-52000
X76000Y-53000
X76000Y-54000
X76000Y-55000
X76000Y-56000
X76000Y-57000
X76000Y-58000
T5
X15000Y-22000
X15000Y-23772
X17559Y-22000
X17559Y-23772
X21000Y-22000
X21000Y-26000
X35000Y-50500
X39000Y-50500
T6
X15500Y-43000
X15500Y-45000
X15500Y-47000
T7
X43157Y-61244
X53000Y-61244
T4
G00X15138Y-57229
M15
G01X15138Y-58017
M16
G05
G00X15925Y-59473
M15
G01X16713Y-59473
M16
G05
G00X17500Y-57229
M15
G01X17500Y-58017
M16
G05
M30
