G04 #@! TF.GenerationSoftware,KiCad,Pcbnew,8.0.9-8.0.9-0~ubuntu22.04.1*
G04 #@! TF.CreationDate,2026-09-17T09:06:39+10:00*
G04 #@! TF.ProjectId,DualCore6502Whole,4475616c-436f-4726-9536-35303257686f,rev?*
G04 #@! TF.SameCoordinates,Original*
G04 #@! TF.FileFunction,Copper,L4,Bot*
G04 #@! TF.FilePolarity,Positive*
%FSLAX46Y46*%
G04 Gerber Fmt 4.6, Leading zero omitted, Abs format (unit mm)*
G04 Created by KiCad (PCBNEW 8.0.9-8.0.9-0~ubuntu22.04.1) date 2026-09-17 09:06:39*
%MOMM*%
%LPD*%
G01*
G04 APERTURE LIST*
G04 Aperture macros list*
%AMRoundRect*
0 Rectangle with rounded corners*
0 $1 Rounding radius*
0 $2 $3 $4 $5 $6 $7 $8 $9 X,Y pos of 4 corners*
0 Add a 4 corners polygon primitive as box body*
4,1,4,$2,$3,$4,$5,$6,$7,$8,$9,$2,$3,0*
0 Add four circle primitives for the rounded corners*
1,1,$1+$1,$2,$3*
1,1,$1+$1,$4,$5*
1,1,$1+$1,$6,$7*
1,1,$1+$1,$8,$9*
0 Add four rect primitives between the rounded corners*
20,1,$1+$1,$2,$3,$4,$5,0*
20,1,$1+$1,$4,$5,$6,$7,0*
20,1,$1+$1,$6,$7,$8,$9,0*
20,1,$1+$1,$8,$9,$2,$3,0*%
G04 Aperture macros list end*
G04 #@! TA.AperFunction,ComponentPad*
%ADD10C,1.600000*%
G04 #@! TD*
G04 #@! TA.AperFunction,ComponentPad*
%ADD11O,1.600000X1.600000*%
G04 #@! TD*
G04 #@! TA.AperFunction,ComponentPad*
%ADD12R,1.800000X1.800000*%
G04 #@! TD*
G04 #@! TA.AperFunction,ComponentPad*
%ADD13C,1.800000*%
G04 #@! TD*
G04 #@! TA.AperFunction,ComponentPad*
%ADD14R,1.600000X1.600000*%
G04 #@! TD*
G04 #@! TA.AperFunction,ComponentPad*
%ADD15R,1.700000X1.700000*%
G04 #@! TD*
G04 #@! TA.AperFunction,ComponentPad*
%ADD16O,1.700000X1.700000*%
G04 #@! TD*
G04 #@! TA.AperFunction,ComponentPad*
%ADD17R,2.200000X2.200000*%
G04 #@! TD*
G04 #@! TA.AperFunction,ComponentPad*
%ADD18O,2.200000X2.200000*%
G04 #@! TD*
G04 #@! TA.AperFunction,ComponentPad*
%ADD19C,2.000000*%
G04 #@! TD*
G04 #@! TA.AperFunction,ComponentPad*
%ADD20R,3.500000X3.500000*%
G04 #@! TD*
G04 #@! TA.AperFunction,ComponentPad*
%ADD21RoundRect,0.750000X-0.750000X-1.000000X0.750000X-1.000000X0.750000X1.000000X-0.750000X1.000000X0*%
G04 #@! TD*
G04 #@! TA.AperFunction,ComponentPad*
%ADD22RoundRect,0.875000X-0.875000X-0.875000X0.875000X-0.875000X0.875000X0.875000X-0.875000X0.875000X0*%
G04 #@! TD*
G04 #@! TA.AperFunction,ComponentPad*
%ADD23C,1.500000*%
G04 #@! TD*
G04 #@! TA.AperFunction,ComponentPad*
%ADD24R,1.440000X2.000000*%
G04 #@! TD*
G04 #@! TA.AperFunction,ComponentPad*
%ADD25O,1.440000X2.000000*%
G04 #@! TD*
G04 #@! TA.AperFunction,ComponentPad*
%ADD26C,4.000000*%
G04 #@! TD*
G04 #@! TA.AperFunction,ComponentPad*
%ADD27C,1.440000*%
G04 #@! TD*
G04 #@! TA.AperFunction,ComponentPad*
%ADD28RoundRect,0.250000X-1.550000X0.650000X-1.550000X-0.650000X1.550000X-0.650000X1.550000X0.650000X0*%
G04 #@! TD*
G04 #@! TA.AperFunction,ComponentPad*
%ADD29O,3.600000X1.800000*%
G04 #@! TD*
G04 #@! TA.AperFunction,ViaPad*
%ADD30C,0.600000*%
G04 #@! TD*
G04 #@! TA.AperFunction,Conductor*
%ADD31C,0.200000*%
G04 #@! TD*
G04 #@! TA.AperFunction,Conductor*
%ADD32C,2.000000*%
G04 #@! TD*
G04 APERTURE END LIST*
D10*
X152400000Y-143510000D03*
D11*
X162560000Y-143510000D03*
D10*
X168910000Y-139700000D03*
D11*
X179070000Y-139700000D03*
D10*
X152400000Y-147320000D03*
D11*
X162560000Y-147320000D03*
D12*
X142440000Y-156210000D03*
D13*
X144980000Y-156210000D03*
D10*
X138430000Y-128350000D03*
X138430000Y-133350000D03*
D14*
X101600000Y-45720000D03*
D11*
X104140000Y-45720000D03*
X106680000Y-45720000D03*
X109220000Y-45720000D03*
X111760000Y-45720000D03*
X114300000Y-45720000D03*
X116840000Y-45720000D03*
X116840000Y-38100000D03*
X114300000Y-38100000D03*
X111760000Y-38100000D03*
X109220000Y-38100000D03*
X106680000Y-38100000D03*
X104140000Y-38100000D03*
X101600000Y-38100000D03*
D10*
X138430000Y-115650000D03*
X138430000Y-120650000D03*
X149900000Y-73660000D03*
X154900000Y-73660000D03*
D15*
X142240000Y-73660000D03*
D16*
X144780000Y-73660000D03*
D10*
X38965000Y-66040000D03*
X43965000Y-66040000D03*
X97790000Y-39450000D03*
X97790000Y-44450000D03*
X91520000Y-123190000D03*
X96520000Y-123190000D03*
X171450000Y-46990000D03*
D11*
X171450000Y-36830000D03*
D10*
X143510000Y-39450000D03*
X143510000Y-44450000D03*
D14*
X91440000Y-114300000D03*
D11*
X93980000Y-114300000D03*
X96520000Y-114300000D03*
X99060000Y-114300000D03*
X101600000Y-114300000D03*
X104140000Y-114300000D03*
X106680000Y-114300000D03*
X109220000Y-114300000D03*
X109220000Y-106680000D03*
X106680000Y-106680000D03*
X104140000Y-106680000D03*
X101600000Y-106680000D03*
X99060000Y-106680000D03*
X96520000Y-106680000D03*
X93980000Y-106680000D03*
X91440000Y-106680000D03*
D10*
X168910000Y-143510000D03*
D11*
X179070000Y-143510000D03*
D14*
X116840000Y-121920000D03*
D11*
X119380000Y-121920000D03*
X121920000Y-121920000D03*
X124460000Y-121920000D03*
X127000000Y-121920000D03*
X129540000Y-121920000D03*
X132080000Y-121920000D03*
X134620000Y-121920000D03*
X134620000Y-114300000D03*
X132080000Y-114300000D03*
X129540000Y-114300000D03*
X127000000Y-114300000D03*
X124460000Y-114300000D03*
X121920000Y-114300000D03*
X119380000Y-114300000D03*
X116840000Y-114300000D03*
D14*
X132080000Y-68585000D03*
D11*
X134620000Y-68585000D03*
X137160000Y-68585000D03*
X139700000Y-68585000D03*
X142240000Y-68585000D03*
X144780000Y-68585000D03*
X147320000Y-68585000D03*
X149860000Y-68585000D03*
X152400000Y-68585000D03*
X154940000Y-68585000D03*
X157480000Y-68585000D03*
X160020000Y-68585000D03*
X162560000Y-68585000D03*
X165100000Y-68585000D03*
X167640000Y-68585000D03*
X170180000Y-68585000D03*
X172720000Y-68585000D03*
X175260000Y-68585000D03*
X177800000Y-68585000D03*
X180340000Y-68585000D03*
X180340000Y-53345000D03*
X177800000Y-53345000D03*
X175260000Y-53345000D03*
X172720000Y-53345000D03*
X170180000Y-53345000D03*
X167640000Y-53345000D03*
X165100000Y-53345000D03*
X162560000Y-53345000D03*
X160020000Y-53345000D03*
X157480000Y-53345000D03*
X154940000Y-53345000D03*
X152400000Y-53345000D03*
X149860000Y-53345000D03*
X147320000Y-53345000D03*
X144780000Y-53345000D03*
X142240000Y-53345000D03*
X139700000Y-53345000D03*
X137160000Y-53345000D03*
X134620000Y-53345000D03*
X132080000Y-53345000D03*
D10*
X124460000Y-55885000D03*
D11*
X124460000Y-66045000D03*
D17*
X88900000Y-128270000D03*
D18*
X99060000Y-128270000D03*
D14*
X147320000Y-93980000D03*
D11*
X149860000Y-93980000D03*
X152400000Y-93980000D03*
X154940000Y-93980000D03*
X157480000Y-93980000D03*
X160020000Y-93980000D03*
X162560000Y-93980000D03*
X165100000Y-93980000D03*
X167640000Y-93980000D03*
X170180000Y-93980000D03*
X172720000Y-93980000D03*
X175260000Y-93980000D03*
X177800000Y-93980000D03*
X180340000Y-93980000D03*
X180340000Y-78740000D03*
X177800000Y-78740000D03*
X175260000Y-78740000D03*
X172720000Y-78740000D03*
X170180000Y-78740000D03*
X167640000Y-78740000D03*
X165100000Y-78740000D03*
X162560000Y-78740000D03*
X160020000Y-78740000D03*
X157480000Y-78740000D03*
X154940000Y-78740000D03*
X152400000Y-78740000D03*
X149860000Y-78740000D03*
X147320000Y-78740000D03*
D10*
X113030000Y-102870000D03*
X113030000Y-107870000D03*
X104140000Y-123190000D03*
X99140000Y-123190000D03*
D14*
X50800000Y-149860000D03*
D11*
X53340000Y-149860000D03*
X55880000Y-149860000D03*
X58420000Y-149860000D03*
X60960000Y-149860000D03*
X63500000Y-149860000D03*
X66040000Y-149860000D03*
X68580000Y-149860000D03*
X71120000Y-149860000D03*
X73660000Y-149860000D03*
X76200000Y-149860000D03*
X78740000Y-149860000D03*
X81280000Y-149860000D03*
X83820000Y-149860000D03*
X86360000Y-149860000D03*
X88900000Y-149860000D03*
X91440000Y-149860000D03*
X93980000Y-149860000D03*
X96520000Y-149860000D03*
X99060000Y-149860000D03*
X99060000Y-134620000D03*
X96520000Y-134620000D03*
X93980000Y-134620000D03*
X91440000Y-134620000D03*
X88900000Y-134620000D03*
X86360000Y-134620000D03*
X83820000Y-134620000D03*
X81280000Y-134620000D03*
X78740000Y-134620000D03*
X76200000Y-134620000D03*
X73660000Y-134620000D03*
X71120000Y-134620000D03*
X68580000Y-134620000D03*
X66040000Y-134620000D03*
X63500000Y-134620000D03*
X60960000Y-134620000D03*
X58420000Y-134620000D03*
X55880000Y-134620000D03*
X53340000Y-134620000D03*
X50800000Y-134620000D03*
D19*
X44600000Y-60380000D03*
X38100000Y-60380000D03*
X44600000Y-55880000D03*
X38100000Y-55880000D03*
D10*
X135890000Y-143510000D03*
D11*
X146050000Y-143510000D03*
D14*
X124455000Y-45720000D03*
D11*
X126995000Y-45720000D03*
X129535000Y-45720000D03*
X132075000Y-45720000D03*
X134615000Y-45720000D03*
X137155000Y-45720000D03*
X139695000Y-45720000D03*
X139695000Y-38100000D03*
X137155000Y-38100000D03*
X134615000Y-38100000D03*
X132075000Y-38100000D03*
X129535000Y-38100000D03*
X126995000Y-38100000D03*
X124455000Y-38100000D03*
D10*
X72390000Y-39450000D03*
X72390000Y-44450000D03*
D14*
X76200000Y-45720000D03*
D11*
X78740000Y-45720000D03*
X81280000Y-45720000D03*
X83820000Y-45720000D03*
X86360000Y-45720000D03*
X88900000Y-45720000D03*
X91440000Y-45720000D03*
X93980000Y-45720000D03*
X93980000Y-38100000D03*
X91440000Y-38100000D03*
X88900000Y-38100000D03*
X86360000Y-38100000D03*
X83820000Y-38100000D03*
X81280000Y-38100000D03*
X78740000Y-38100000D03*
X76200000Y-38100000D03*
D12*
X120650000Y-143510000D03*
D13*
X123190000Y-143510000D03*
D10*
X161290000Y-128350000D03*
X161290000Y-133350000D03*
D14*
X111760000Y-134620000D03*
D11*
X114300000Y-134620000D03*
X116840000Y-134620000D03*
X119380000Y-134620000D03*
X121920000Y-134620000D03*
X124460000Y-134620000D03*
X127000000Y-134620000D03*
X129540000Y-134620000D03*
X132080000Y-134620000D03*
X134620000Y-134620000D03*
X134620000Y-127000000D03*
X132080000Y-127000000D03*
X129540000Y-127000000D03*
X127000000Y-127000000D03*
X124460000Y-127000000D03*
X121920000Y-127000000D03*
X119380000Y-127000000D03*
X116840000Y-127000000D03*
X114300000Y-127000000D03*
X111760000Y-127000000D03*
D10*
X167640000Y-36830000D03*
D11*
X167640000Y-46990000D03*
D10*
X161290000Y-102950000D03*
X161290000Y-107950000D03*
D14*
X116840000Y-109140000D03*
D11*
X119380000Y-109140000D03*
X121920000Y-109140000D03*
X124460000Y-109140000D03*
X127000000Y-109140000D03*
X129540000Y-109140000D03*
X132080000Y-109140000D03*
X134620000Y-109140000D03*
X134620000Y-101520000D03*
X132080000Y-101520000D03*
X129540000Y-101520000D03*
X127000000Y-101520000D03*
X124460000Y-101520000D03*
X121920000Y-101520000D03*
X119380000Y-101520000D03*
X116840000Y-101520000D03*
D10*
X115570000Y-90170000D03*
X115570000Y-95170000D03*
D14*
X142240000Y-121920000D03*
D11*
X144780000Y-121920000D03*
X147320000Y-121920000D03*
X149860000Y-121920000D03*
X152400000Y-121920000D03*
X154940000Y-121920000D03*
X157480000Y-121920000D03*
X157480000Y-114300000D03*
X154940000Y-114300000D03*
X152400000Y-114300000D03*
X149860000Y-114300000D03*
X147320000Y-114300000D03*
X144780000Y-114300000D03*
X142240000Y-114300000D03*
D15*
X45720000Y-157480000D03*
D16*
X48260000Y-157480000D03*
X50800000Y-157480000D03*
X53340000Y-157480000D03*
X55880000Y-157480000D03*
X58420000Y-157480000D03*
X60960000Y-157480000D03*
X63500000Y-157480000D03*
X66040000Y-157480000D03*
X68580000Y-157480000D03*
X71120000Y-157480000D03*
X73660000Y-157480000D03*
X76200000Y-157480000D03*
X78740000Y-157480000D03*
X81280000Y-157480000D03*
X83820000Y-157480000D03*
X86360000Y-157480000D03*
X88900000Y-157480000D03*
X91440000Y-157480000D03*
X93980000Y-157480000D03*
X96520000Y-157480000D03*
X99060000Y-157480000D03*
D10*
X161290000Y-115650000D03*
X161290000Y-120650000D03*
X120650000Y-55885000D03*
D11*
X120650000Y-66045000D03*
D20*
X44450000Y-146362500D03*
D21*
X38450000Y-146362500D03*
D22*
X41450000Y-151062500D03*
D10*
X138430000Y-102870000D03*
X138430000Y-107870000D03*
D23*
X67310000Y-128270000D03*
X62430000Y-128270000D03*
D10*
X143510000Y-88820000D03*
X143510000Y-83820000D03*
D14*
X68580000Y-68585000D03*
D11*
X71120000Y-68585000D03*
X73660000Y-68585000D03*
X76200000Y-68585000D03*
X78740000Y-68585000D03*
X81280000Y-68585000D03*
X83820000Y-68585000D03*
X86360000Y-68585000D03*
X88900000Y-68585000D03*
X91440000Y-68585000D03*
X93980000Y-68585000D03*
X96520000Y-68585000D03*
X99060000Y-68585000D03*
X101600000Y-68585000D03*
X104140000Y-68585000D03*
X106680000Y-68585000D03*
X109220000Y-68585000D03*
X111760000Y-68585000D03*
X114300000Y-68585000D03*
X116840000Y-68585000D03*
X116840000Y-53345000D03*
X114300000Y-53345000D03*
X111760000Y-53345000D03*
X109220000Y-53345000D03*
X106680000Y-53345000D03*
X104140000Y-53345000D03*
X101600000Y-53345000D03*
X99060000Y-53345000D03*
X96520000Y-53345000D03*
X93980000Y-53345000D03*
X91440000Y-53345000D03*
X88900000Y-53345000D03*
X86360000Y-53345000D03*
X83820000Y-53345000D03*
X81280000Y-53345000D03*
X78740000Y-53345000D03*
X76200000Y-53345000D03*
X73660000Y-53345000D03*
X71120000Y-53345000D03*
X68580000Y-53345000D03*
D15*
X104140000Y-128270000D03*
D16*
X104140000Y-130810000D03*
X104140000Y-133350000D03*
D14*
X165100000Y-121920000D03*
D11*
X167640000Y-121920000D03*
X170180000Y-121920000D03*
X172720000Y-121920000D03*
X175260000Y-121920000D03*
X177800000Y-121920000D03*
X180340000Y-121920000D03*
X180340000Y-114300000D03*
X177800000Y-114300000D03*
X175260000Y-114300000D03*
X172720000Y-114300000D03*
X170180000Y-114300000D03*
X167640000Y-114300000D03*
X165100000Y-114300000D03*
D12*
X147520000Y-156210000D03*
D13*
X150060000Y-156210000D03*
D10*
X99140000Y-119380000D03*
X104140000Y-119380000D03*
X113030000Y-77470000D03*
X113030000Y-82470000D03*
X60960000Y-55885000D03*
D11*
X60960000Y-66045000D03*
D12*
X152600000Y-156210000D03*
D13*
X155140000Y-156210000D03*
D14*
X116840000Y-83820000D03*
D11*
X119380000Y-83820000D03*
X121920000Y-83820000D03*
X124460000Y-83820000D03*
X127000000Y-83820000D03*
X129540000Y-83820000D03*
X132080000Y-83820000D03*
X134620000Y-83820000D03*
X134620000Y-76200000D03*
X132080000Y-76200000D03*
X129540000Y-76200000D03*
X127000000Y-76200000D03*
X124460000Y-76200000D03*
X121920000Y-76200000D03*
X119380000Y-76200000D03*
X116840000Y-76200000D03*
D17*
X53340000Y-55880000D03*
D18*
X53340000Y-66040000D03*
D14*
X142240000Y-109140000D03*
D11*
X144780000Y-109140000D03*
X147320000Y-109140000D03*
X149860000Y-109140000D03*
X152400000Y-109140000D03*
X154940000Y-109140000D03*
X157480000Y-109140000D03*
X157480000Y-101520000D03*
X154940000Y-101520000D03*
X152400000Y-101520000D03*
X149860000Y-101520000D03*
X147320000Y-101520000D03*
X144780000Y-101520000D03*
X142240000Y-101520000D03*
D10*
X179070000Y-36830000D03*
D11*
X179070000Y-46990000D03*
D10*
X58340000Y-73660000D03*
X53340000Y-73660000D03*
X135890000Y-139700000D03*
D11*
X146050000Y-139700000D03*
D14*
X50800000Y-121920000D03*
D11*
X53340000Y-121920000D03*
X55880000Y-121920000D03*
X58420000Y-121920000D03*
X60960000Y-121920000D03*
X63500000Y-121920000D03*
X66040000Y-121920000D03*
X68580000Y-121920000D03*
X71120000Y-121920000D03*
X73660000Y-121920000D03*
X76200000Y-121920000D03*
X78740000Y-121920000D03*
X81280000Y-121920000D03*
X83820000Y-121920000D03*
X83820000Y-106680000D03*
X81280000Y-106680000D03*
X78740000Y-106680000D03*
X76200000Y-106680000D03*
X73660000Y-106680000D03*
X71120000Y-106680000D03*
X68580000Y-106680000D03*
X66040000Y-106680000D03*
X63500000Y-106680000D03*
X60960000Y-106680000D03*
X58420000Y-106680000D03*
X55880000Y-106680000D03*
X53340000Y-106680000D03*
X50800000Y-106680000D03*
D14*
X147320000Y-45710000D03*
D11*
X149860000Y-45710000D03*
X152400000Y-45710000D03*
X154940000Y-45710000D03*
X154940000Y-38090000D03*
X152400000Y-38090000D03*
X149860000Y-38090000D03*
X147320000Y-38090000D03*
D10*
X175260000Y-36830000D03*
D11*
X175260000Y-46990000D03*
D10*
X52150000Y-128270000D03*
X57150000Y-128270000D03*
X146050000Y-147320000D03*
D11*
X135890000Y-147320000D03*
D14*
X40680000Y-135890000D03*
D10*
X43180000Y-135890000D03*
X102870000Y-149820000D03*
X102870000Y-144820000D03*
D14*
X142240000Y-134620000D03*
D11*
X144780000Y-134620000D03*
X147320000Y-134620000D03*
X149860000Y-134620000D03*
X152400000Y-134620000D03*
X154940000Y-134620000D03*
X157480000Y-134620000D03*
X157480000Y-127000000D03*
X154940000Y-127000000D03*
X152400000Y-127000000D03*
X149860000Y-127000000D03*
X147320000Y-127000000D03*
X144780000Y-127000000D03*
X142240000Y-127000000D03*
D10*
X107950000Y-128350000D03*
X107950000Y-133350000D03*
X152400000Y-139700000D03*
D11*
X162560000Y-139700000D03*
D24*
X58420000Y-96520000D03*
D25*
X60960000Y-96520000D03*
X63500000Y-96520000D03*
X66040000Y-96520000D03*
X68580000Y-96520000D03*
X71120000Y-96520000D03*
X73660000Y-96520000D03*
X76200000Y-96520000D03*
X78740000Y-96520000D03*
X81280000Y-96520000D03*
X83820000Y-96520000D03*
X86360000Y-96520000D03*
X88900000Y-96520000D03*
X91440000Y-96520000D03*
X91440000Y-81280000D03*
X88900000Y-81280000D03*
X86360000Y-81280000D03*
X83820000Y-81280000D03*
X81280000Y-81280000D03*
X78740000Y-81280000D03*
X76200000Y-81280000D03*
X73660000Y-81280000D03*
X71120000Y-81280000D03*
X68580000Y-81280000D03*
X66040000Y-81280000D03*
X63500000Y-81280000D03*
X60960000Y-81280000D03*
X58420000Y-81280000D03*
D14*
X119380000Y-96520000D03*
D11*
X121920000Y-96520000D03*
X124460000Y-96520000D03*
X127000000Y-96520000D03*
X129540000Y-96520000D03*
X132080000Y-96520000D03*
X134620000Y-96520000D03*
X134620000Y-88900000D03*
X132080000Y-88900000D03*
X129540000Y-88900000D03*
X127000000Y-88900000D03*
X124460000Y-88900000D03*
X121920000Y-88900000D03*
X119380000Y-88900000D03*
D12*
X157680000Y-156210000D03*
D13*
X160220000Y-156210000D03*
D10*
X120650000Y-39450000D03*
X120650000Y-44450000D03*
X91520000Y-119380000D03*
X96520000Y-119380000D03*
D12*
X162760000Y-156210000D03*
D13*
X165300000Y-156210000D03*
D15*
X78740000Y-73660000D03*
D16*
X81280000Y-73660000D03*
D10*
X57150000Y-55885000D03*
D11*
X57150000Y-66045000D03*
D10*
X82550000Y-128270000D03*
D11*
X72390000Y-128270000D03*
D10*
X49530000Y-66040000D03*
D11*
X49530000Y-55880000D03*
D14*
X165100000Y-109220000D03*
D11*
X167640000Y-109220000D03*
X170180000Y-109220000D03*
X172720000Y-109220000D03*
X175260000Y-109220000D03*
X177800000Y-109220000D03*
X180340000Y-109220000D03*
X180340000Y-101600000D03*
X177800000Y-101600000D03*
X175260000Y-101600000D03*
X172720000Y-101600000D03*
X170180000Y-101600000D03*
X167640000Y-101600000D03*
X165100000Y-101600000D03*
D26*
X109620000Y-155559700D03*
X134620000Y-155559700D03*
D14*
X127660000Y-152719700D03*
D10*
X124890000Y-152719700D03*
X122120000Y-152719700D03*
X119350000Y-152719700D03*
X116580000Y-152719700D03*
X126275000Y-155559700D03*
X123505000Y-155559700D03*
X120735000Y-155559700D03*
X117965000Y-155559700D03*
D15*
X171650000Y-157480000D03*
D16*
X171650000Y-154940000D03*
X174190000Y-157480000D03*
X174190000Y-154940000D03*
X176730000Y-157480000D03*
X176730000Y-154940000D03*
X179270000Y-157480000D03*
X179270000Y-154940000D03*
X181810000Y-157480000D03*
X181810000Y-154940000D03*
D10*
X86360000Y-73660000D03*
X91360000Y-73660000D03*
D15*
X34290000Y-129540000D03*
D16*
X34290000Y-132080000D03*
X34290000Y-134620000D03*
D14*
X52070000Y-45720000D03*
D10*
X67310000Y-45720000D03*
X67310000Y-38100000D03*
X52070000Y-38100000D03*
X64770000Y-55885000D03*
D11*
X64770000Y-66045000D03*
D10*
X168910000Y-147320000D03*
D11*
X179070000Y-147320000D03*
D10*
X128270000Y-55885000D03*
D11*
X128270000Y-66045000D03*
D10*
X113030000Y-115650000D03*
X113030000Y-120650000D03*
D15*
X193040000Y-48260000D03*
D16*
X193040000Y-50800000D03*
X193040000Y-53340000D03*
X193040000Y-55880000D03*
X193040000Y-58420000D03*
X193040000Y-60960000D03*
X193040000Y-63500000D03*
X193040000Y-66040000D03*
X193040000Y-68580000D03*
X193040000Y-71120000D03*
X193040000Y-73660000D03*
X193040000Y-76200000D03*
X193040000Y-78740000D03*
X193040000Y-81280000D03*
X193040000Y-83820000D03*
X193040000Y-86360000D03*
X193040000Y-88900000D03*
X193040000Y-91440000D03*
X193040000Y-93980000D03*
X193040000Y-96520000D03*
X193040000Y-99060000D03*
X193040000Y-101600000D03*
X193040000Y-104140000D03*
X193040000Y-106680000D03*
X193040000Y-109220000D03*
X193040000Y-111760000D03*
X193040000Y-114300000D03*
X193040000Y-116840000D03*
X193040000Y-119380000D03*
X193040000Y-121920000D03*
X193040000Y-124460000D03*
X193040000Y-127000000D03*
X193040000Y-129540000D03*
X193040000Y-132080000D03*
X193040000Y-134620000D03*
X193040000Y-137160000D03*
X193040000Y-139700000D03*
X193040000Y-142240000D03*
X193040000Y-144780000D03*
X193040000Y-147320000D03*
X190500000Y-48260000D03*
X190500000Y-50800000D03*
X190500000Y-53340000D03*
X190500000Y-55880000D03*
X190500000Y-58420000D03*
X190500000Y-60960000D03*
X190500000Y-63500000D03*
X190500000Y-66040000D03*
X190500000Y-68580000D03*
X190500000Y-71120000D03*
X190500000Y-73660000D03*
X190500000Y-76200000D03*
X190500000Y-78740000D03*
X190500000Y-81280000D03*
X190500000Y-83820000D03*
X190500000Y-86360000D03*
X190500000Y-88900000D03*
X190500000Y-91440000D03*
X190500000Y-93980000D03*
X190500000Y-96520000D03*
X190500000Y-99060000D03*
X190500000Y-101600000D03*
X190500000Y-104140000D03*
X190500000Y-106680000D03*
X190500000Y-109220000D03*
X190500000Y-111760000D03*
X190500000Y-114300000D03*
X190500000Y-116840000D03*
X190500000Y-119380000D03*
X190500000Y-121920000D03*
X190500000Y-124460000D03*
X190500000Y-127000000D03*
X190500000Y-129540000D03*
X190500000Y-132080000D03*
X190500000Y-134620000D03*
X190500000Y-137160000D03*
X190500000Y-139700000D03*
X190500000Y-142240000D03*
X190500000Y-144780000D03*
X190500000Y-147320000D03*
D27*
X163815000Y-44375000D03*
X161275000Y-44375000D03*
X158735000Y-44375000D03*
D28*
X39370000Y-109220000D03*
D29*
X39370000Y-114300000D03*
X39370000Y-119380000D03*
D10*
X87630000Y-111680000D03*
X87630000Y-106680000D03*
D14*
X165100000Y-134620000D03*
D11*
X167640000Y-134620000D03*
X170180000Y-134620000D03*
X172720000Y-134620000D03*
X175260000Y-134620000D03*
X177800000Y-134620000D03*
X180340000Y-134620000D03*
X180340000Y-127000000D03*
X177800000Y-127000000D03*
X175260000Y-127000000D03*
X172720000Y-127000000D03*
X170180000Y-127000000D03*
X167640000Y-127000000D03*
X165100000Y-127000000D03*
D10*
X158790000Y-38100000D03*
X163790000Y-38100000D03*
D30*
X130541400Y-55947300D03*
X150978200Y-51894500D03*
X143055100Y-98201000D03*
X107276200Y-130446200D03*
X107950000Y-120897600D03*
X189228800Y-131359000D03*
X100626200Y-84649200D03*
X78423600Y-83749300D03*
X100271700Y-100746900D03*
X139755200Y-66038000D03*
X141978300Y-131202500D03*
X130207600Y-133101500D03*
X130660100Y-135809400D03*
X169377800Y-136798700D03*
X127089800Y-144690200D03*
X85786100Y-130633800D03*
X118889800Y-57596500D03*
X181193400Y-115536300D03*
X153955900Y-72051300D03*
X85338300Y-125520000D03*
X180803700Y-92220000D03*
X118029700Y-54202800D03*
X179459700Y-71088700D03*
X182531800Y-90690600D03*
X137074800Y-62323100D03*
X99533800Y-93646500D03*
X157547600Y-69945000D03*
X127102200Y-131946800D03*
X187313000Y-124493600D03*
X174519000Y-56621000D03*
X73594000Y-108679400D03*
X94889000Y-80782000D03*
X95746200Y-59561200D03*
X94151600Y-103705100D03*
X189415500Y-110076600D03*
X111111700Y-108839500D03*
X107274700Y-70739500D03*
X100789300Y-151412000D03*
X177226000Y-105262900D03*
X171853800Y-118281900D03*
X174991400Y-116070700D03*
X125356000Y-119420400D03*
X184679200Y-119140800D03*
X171703800Y-80230800D03*
X154904300Y-81128200D03*
X86086200Y-113078100D03*
X138795600Y-104229100D03*
X133057000Y-102398400D03*
X54610000Y-109051700D03*
X137523800Y-119410800D03*
X86086200Y-117674900D03*
X137873000Y-100488600D03*
X188491300Y-99006800D03*
X182069000Y-82431700D03*
X153481300Y-85955900D03*
X123190000Y-77780200D03*
X107613900Y-105707800D03*
X122802500Y-86962800D03*
X124457200Y-86895200D03*
X187263400Y-75460000D03*
X86134200Y-111939300D03*
X100793700Y-80526500D03*
X168393900Y-129013400D03*
X88522300Y-132184600D03*
X186399900Y-63860400D03*
X186798700Y-100003600D03*
X144333900Y-95669700D03*
X174123700Y-55256800D03*
X177543600Y-85154100D03*
X117755800Y-82336900D03*
X186137000Y-51715800D03*
X142287900Y-58582100D03*
X108609600Y-56874800D03*
X139485800Y-58010400D03*
X188299500Y-60924500D03*
X188482200Y-94830500D03*
X153782100Y-83690000D03*
X191448900Y-80010000D03*
X151846700Y-71237800D03*
X159381300Y-100842400D03*
X103615400Y-94830500D03*
X121641100Y-131827800D03*
X120831200Y-133288200D03*
X94824400Y-56698500D03*
X182797800Y-115921200D03*
X156880000Y-92135900D03*
X73918100Y-126856500D03*
X70734200Y-86593800D03*
X111734700Y-88939500D03*
X111951200Y-86841600D03*
X177547300Y-74930000D03*
X182450600Y-128511700D03*
X168851000Y-77465200D03*
X96406800Y-82756200D03*
X182649900Y-75957400D03*
X82661300Y-110543200D03*
X165714200Y-92085000D03*
X97621900Y-94275100D03*
X96446300Y-94140700D03*
X98079600Y-80780100D03*
X172595200Y-55694400D03*
X79888900Y-109118000D03*
X79975400Y-125696200D03*
X86306600Y-108981800D03*
X176484200Y-124830000D03*
X64594300Y-120723300D03*
X92604700Y-120420200D03*
X164049200Y-56161200D03*
X94017900Y-94159800D03*
X155016000Y-70370700D03*
X84653500Y-67436300D03*
X154805100Y-61767200D03*
X76564400Y-124264300D03*
X165650900Y-70434300D03*
X66879000Y-124265900D03*
X69000000Y-125127900D03*
X181265700Y-113152800D03*
X122427700Y-115800400D03*
X180340000Y-96520000D03*
X76200000Y-99060000D03*
X86360000Y-55982700D03*
X53837500Y-132814000D03*
X162622700Y-111747600D03*
X151585900Y-107332800D03*
X116291800Y-72263100D03*
X196639200Y-133287100D03*
X182706000Y-134308500D03*
X153180400Y-91731000D03*
X154538200Y-49795400D03*
X88721300Y-121474300D03*
X80592700Y-129907200D03*
X188117400Y-140241300D03*
X150954300Y-135675000D03*
X145462600Y-65623300D03*
X162209300Y-57150000D03*
X96776100Y-66027200D03*
X95798000Y-93645800D03*
X189415500Y-56740100D03*
X127094200Y-54651600D03*
X156336300Y-58745700D03*
X124915400Y-124250500D03*
X90329000Y-103705100D03*
X179453000Y-123257200D03*
X91498800Y-131122200D03*
X92876700Y-56673200D03*
X111369800Y-86289100D03*
X176386900Y-48514500D03*
X177130700Y-49145000D03*
X187129600Y-109182100D03*
X193981600Y-138192700D03*
X102955900Y-71164900D03*
X142040100Y-78726500D03*
X141890200Y-106974300D03*
X187313000Y-38624700D03*
X134226000Y-80036200D03*
X156669800Y-132086600D03*
X151817200Y-132769100D03*
X109160500Y-112386900D03*
X151181500Y-111924000D03*
X179453000Y-111892300D03*
X115572200Y-123895900D03*
X166157900Y-124047100D03*
X166648900Y-103083600D03*
X138359100Y-126759000D03*
X153570600Y-122840900D03*
X141845200Y-44541100D03*
X106176900Y-131404900D03*
X79119100Y-109885900D03*
X187962400Y-132721800D03*
D31*
X63500000Y-121920000D02*
X63500000Y-127200000D01*
X63500000Y-127200000D02*
X62430000Y-128270000D01*
X57310200Y-135109100D02*
X57310200Y-130726000D01*
X57310200Y-130726000D02*
X58420000Y-129616200D01*
X37222300Y-110950600D02*
X37222300Y-67782700D01*
X66040000Y-134620000D02*
X64902800Y-135757200D01*
X39440100Y-65564900D02*
X39440100Y-57220100D01*
X132080000Y-53345000D02*
X132080000Y-54408700D01*
X144780000Y-113198300D02*
X143667500Y-112085800D01*
X150978200Y-50773500D02*
X150978200Y-51894500D01*
X143667500Y-98813400D02*
X143055100Y-98201000D01*
X154940000Y-46811700D02*
X150978200Y-50773500D01*
X144780000Y-118278300D02*
X144780000Y-114300000D01*
X64902800Y-135757200D02*
X57958300Y-135757200D01*
X39370000Y-113098300D02*
X37222300Y-110950600D01*
X57958300Y-135757200D02*
X57310200Y-135109100D01*
X142240000Y-120818300D02*
X144780000Y-118278300D01*
X154940000Y-45710000D02*
X154940000Y-46811700D01*
X39370000Y-114300000D02*
X39370000Y-113098300D01*
X38965000Y-66040000D02*
X39440100Y-65564900D01*
X39440100Y-57220100D02*
X38100000Y-55880000D01*
X144780000Y-114300000D02*
X144780000Y-113198300D01*
X142240000Y-121920000D02*
X142240000Y-120818300D01*
X132080000Y-54408700D02*
X130541400Y-55947300D01*
X143667500Y-112085800D02*
X143667500Y-98813400D01*
X37222300Y-67782700D02*
X38965000Y-66040000D01*
X58420000Y-129616200D02*
X58420000Y-121920000D01*
X96520000Y-114300000D02*
X96520000Y-119380000D01*
X91440000Y-114300000D02*
X91440000Y-119300000D01*
X91440000Y-119300000D02*
X91520000Y-119380000D01*
X105240000Y-115400000D02*
X104140000Y-114300000D01*
X104140000Y-123190000D02*
X105240000Y-122090000D01*
X105240000Y-122090000D02*
X105240000Y-115400000D01*
X104140000Y-119380000D02*
X101600000Y-116840000D01*
X101600000Y-116840000D02*
X101600000Y-114300000D01*
X99060000Y-114300000D02*
X99060000Y-119300000D01*
X99060000Y-119300000D02*
X99140000Y-119380000D01*
X93980000Y-120730000D02*
X91520000Y-123190000D01*
X93980000Y-114300000D02*
X93980000Y-120730000D01*
X107950000Y-111591700D02*
X104140000Y-107781700D01*
X106828600Y-122019000D02*
X107950000Y-120897600D01*
X193040000Y-134620000D02*
X191888300Y-133468300D01*
X191888300Y-131780400D02*
X191036200Y-130928300D01*
X106828600Y-129998600D02*
X106828600Y-122019000D01*
X191888300Y-133468300D02*
X191888300Y-131780400D01*
X189659500Y-130928300D02*
X189228800Y-131359000D01*
X107276200Y-130446200D02*
X106828600Y-129998600D01*
X191036200Y-130928300D02*
X189659500Y-130928300D01*
X104140000Y-106680000D02*
X104140000Y-107781700D01*
X107950000Y-120897600D02*
X107950000Y-111591700D01*
X162560000Y-139700000D02*
X162560000Y-140801700D01*
X165300000Y-143541700D02*
X165300000Y-156210000D01*
X162560000Y-140801700D02*
X165300000Y-143541700D01*
X160220000Y-146951700D02*
X162560000Y-144611700D01*
X162560000Y-143510000D02*
X162560000Y-144611700D01*
X160220000Y-156210000D02*
X160220000Y-146951700D01*
X104140000Y-128270000D02*
X104140000Y-127118300D01*
X77470000Y-82795700D02*
X77470000Y-70956700D01*
X77470000Y-70956700D02*
X76200000Y-69686700D01*
X100271700Y-85003700D02*
X100626200Y-84649200D01*
X100271700Y-123250000D02*
X100271700Y-100746900D01*
X78423600Y-83749300D02*
X77470000Y-82795700D01*
X100271700Y-100746900D02*
X100271700Y-85003700D01*
X76200000Y-68585000D02*
X76200000Y-69686700D01*
X104140000Y-127118300D02*
X100271700Y-123250000D01*
X140736600Y-127622700D02*
X141978300Y-128864400D01*
X139700000Y-68585000D02*
X139700000Y-69686700D01*
X141978300Y-128864400D02*
X141978300Y-131202500D01*
X139700000Y-69686700D02*
X139700000Y-103609500D01*
X139700000Y-103609500D02*
X140736600Y-104646100D01*
X139700000Y-68585000D02*
X139700000Y-67483300D01*
X139700000Y-67483300D02*
X139755200Y-67428100D01*
X140736600Y-104646100D02*
X140736600Y-127622700D01*
X139755200Y-67428100D02*
X139755200Y-66038000D01*
X155140000Y-156210000D02*
X156341700Y-157411700D01*
X161428900Y-149552800D02*
X162560000Y-148421700D01*
X156341700Y-157411700D02*
X160740600Y-157411700D01*
X161428900Y-156723400D02*
X161428900Y-149552800D01*
X162560000Y-147320000D02*
X162560000Y-148421700D01*
X160740600Y-157411700D02*
X161428900Y-156723400D01*
D32*
X44450000Y-146362000D02*
X43791700Y-146362000D01*
X35492100Y-132080000D02*
X34290000Y-132080000D01*
X43791700Y-146362000D02*
X43133400Y-146362000D01*
D31*
X43791700Y-146362000D02*
X44449500Y-146362000D01*
X44449500Y-146362000D02*
X44450000Y-146362500D01*
D32*
X38100000Y-141329000D02*
X38100000Y-134688000D01*
X38100000Y-134688000D02*
X35492100Y-132080000D01*
X43133400Y-146362000D02*
X38100000Y-141329000D01*
D31*
X146050000Y-140801700D02*
X150060000Y-144811700D01*
X146050000Y-139700000D02*
X146050000Y-140801700D01*
X150060000Y-144811700D02*
X150060000Y-156210000D01*
X144980000Y-156210000D02*
X144928700Y-156158700D01*
X144928700Y-145733000D02*
X146050000Y-144611700D01*
X146050000Y-143510000D02*
X146050000Y-144611700D01*
X144928700Y-156158700D02*
X144928700Y-145733000D01*
X174190000Y-141610900D02*
X169377800Y-136798700D01*
X174190000Y-154940000D02*
X174190000Y-153889100D01*
X130660100Y-133554000D02*
X130660100Y-135809400D01*
X174190000Y-153889100D02*
X174190000Y-141610900D01*
X130207600Y-133101500D02*
X130660100Y-133554000D01*
X119380000Y-134620000D02*
X119380000Y-136980400D01*
X119380000Y-136980400D02*
X127089800Y-144690200D01*
X53340000Y-55880000D02*
X53340000Y-57281700D01*
X55880000Y-59821700D02*
X55880000Y-106680000D01*
X53340000Y-57281700D02*
X55880000Y-59821700D01*
X152400000Y-38090000D02*
X152400000Y-43170000D01*
X158790000Y-38100000D02*
X158735000Y-38155000D01*
X158735000Y-38155000D02*
X158735000Y-44375000D01*
X152400000Y-43170000D02*
X149860000Y-45710000D01*
X127000000Y-147320000D02*
X123190000Y-143510000D01*
X135890000Y-147320000D02*
X127000000Y-147320000D01*
X90946200Y-135726100D02*
X90170000Y-134949900D01*
X99060000Y-134620000D02*
X97953900Y-135726100D01*
X97953900Y-135726100D02*
X90946200Y-135726100D01*
X90170000Y-132344000D02*
X88900000Y-131074000D01*
X90170000Y-134949900D02*
X90170000Y-132344000D01*
X88900000Y-131074000D02*
X88900000Y-128270000D01*
X96520000Y-149860000D02*
X96520000Y-154940000D01*
X96520000Y-154940000D02*
X99060000Y-157480000D01*
X83820000Y-154940000D02*
X86360000Y-157480000D01*
X83820000Y-149860000D02*
X83820000Y-154940000D01*
X60960000Y-149860000D02*
X53340000Y-157480000D01*
X78740000Y-154940000D02*
X81280000Y-157480000D01*
X78740000Y-149860000D02*
X78740000Y-154940000D01*
X91440000Y-149860000D02*
X91440000Y-154940000D01*
X91440000Y-154940000D02*
X93980000Y-157480000D01*
X53340000Y-135584000D02*
X53340000Y-134620000D01*
X67310000Y-156210000D02*
X67310000Y-149554000D01*
X67310000Y-149554000D02*
X53340000Y-135584000D01*
X68580000Y-157480000D02*
X67310000Y-156210000D01*
X73660000Y-149860000D02*
X73660000Y-154940000D01*
X73660000Y-154940000D02*
X76200000Y-157480000D01*
X55880000Y-149860000D02*
X48260000Y-157480000D01*
X58420000Y-149860000D02*
X50800000Y-157480000D01*
X88900000Y-154940000D02*
X91440000Y-157480000D01*
X88900000Y-149860000D02*
X88900000Y-154940000D01*
X63500000Y-149860000D02*
X55880000Y-157480000D01*
X93980000Y-154940000D02*
X96520000Y-157480000D01*
X93980000Y-149860000D02*
X93980000Y-154940000D01*
X76200000Y-154940000D02*
X78740000Y-157480000D01*
X76200000Y-149860000D02*
X76200000Y-154940000D01*
X53340000Y-149860000D02*
X45720000Y-157480000D01*
X50800000Y-135584000D02*
X64770000Y-149554000D01*
X66040000Y-157480000D02*
X64770000Y-156210000D01*
X50800000Y-134620000D02*
X50800000Y-135584000D01*
X64770000Y-156210000D02*
X64770000Y-149554000D01*
X118029700Y-56736400D02*
X118029700Y-54202800D01*
X85338300Y-78056600D02*
X85338300Y-93980000D01*
X152400000Y-53345000D02*
X152400000Y-54446700D01*
X182245100Y-114484600D02*
X182245100Y-93661400D01*
X182531800Y-90690600D02*
X181446600Y-89605400D01*
X86360000Y-96520000D02*
X86360000Y-95001700D01*
X86360000Y-98038300D02*
X85338300Y-99060000D01*
X87798300Y-55548400D02*
X87798300Y-75596600D01*
X153501700Y-71597100D02*
X153955900Y-72051300D01*
X181446600Y-89605400D02*
X181446600Y-73075600D01*
X118889800Y-57596500D02*
X118029700Y-56736400D01*
X88900000Y-53345000D02*
X88900000Y-54446700D01*
X88900000Y-54446700D02*
X87798300Y-55548400D01*
X87798300Y-75596600D02*
X85338300Y-78056600D01*
X85786100Y-130633800D02*
X85338300Y-130186000D01*
X86360000Y-95001700D02*
X85338300Y-93980000D01*
X182245100Y-93661400D02*
X180803700Y-92220000D01*
X86360000Y-96520000D02*
X86360000Y-98038300D01*
X85338300Y-125520000D02*
X85338300Y-99060000D01*
X181446600Y-73075600D02*
X179459700Y-71088700D01*
X152400000Y-54446700D02*
X153501700Y-55548400D01*
X153501700Y-55548400D02*
X153501700Y-71597100D01*
X181193400Y-115536300D02*
X182245100Y-114484600D01*
X85338300Y-130186000D02*
X85338300Y-125520000D01*
X129540000Y-101520000D02*
X131020100Y-103000100D01*
X138304900Y-63553200D02*
X137074800Y-62323100D01*
X138304900Y-98843000D02*
X138304900Y-63553200D01*
X137176900Y-100525400D02*
X137176900Y-99971000D01*
X134702200Y-103000100D02*
X137176900Y-100525400D01*
X131020100Y-103000100D02*
X134702200Y-103000100D01*
X137176900Y-99971000D02*
X138304900Y-98843000D01*
X86360000Y-154940000D02*
X88900000Y-157480000D01*
X86360000Y-149860000D02*
X86360000Y-154940000D01*
X155887000Y-93980000D02*
X158608500Y-91258500D01*
X157547600Y-69946600D02*
X157547600Y-69945000D01*
X154940000Y-93980000D02*
X155887000Y-93980000D01*
X99533800Y-93646500D02*
X99847900Y-93332400D01*
X104140000Y-75634200D02*
X104140000Y-68585000D01*
X158608500Y-71007500D02*
X157547600Y-69946600D01*
X99847900Y-93332400D02*
X99847900Y-79926300D01*
X158608500Y-91258500D02*
X158608500Y-71007500D01*
X99847900Y-79926300D02*
X104140000Y-75634200D01*
X188496600Y-123310000D02*
X187313000Y-124493600D01*
X95746200Y-59561200D02*
X95250000Y-60057400D01*
X94889000Y-80782000D02*
X94889000Y-94550800D01*
X74829700Y-109915100D02*
X73594000Y-108679400D01*
X95250000Y-60057400D02*
X95250000Y-80421000D01*
X95250000Y-80421000D02*
X94889000Y-80782000D01*
X127000000Y-127000000D02*
X127000000Y-128101700D01*
X193040000Y-124460000D02*
X191890000Y-123310000D01*
X176698300Y-76536600D02*
X177800000Y-77638300D01*
X78740000Y-134620000D02*
X78740000Y-133518300D01*
X127102200Y-128203900D02*
X127000000Y-128101700D01*
X78740000Y-133518300D02*
X74829700Y-129608000D01*
X94889000Y-94550800D02*
X94151600Y-95288200D01*
X96520000Y-58787400D02*
X95746200Y-59561200D01*
X177800000Y-78740000D02*
X177800000Y-77638300D01*
X74829700Y-129608000D02*
X74829700Y-109915100D01*
X94151600Y-95288200D02*
X94151600Y-103705100D01*
X176698300Y-58800300D02*
X176698300Y-76536600D01*
X191890000Y-123310000D02*
X188496600Y-123310000D01*
X96520000Y-53345000D02*
X96520000Y-58787400D01*
X127102200Y-131946800D02*
X127102200Y-128203900D01*
X174519000Y-56621000D02*
X176698300Y-58800300D01*
X81280000Y-154940000D02*
X83820000Y-157480000D01*
X81280000Y-149860000D02*
X81280000Y-154940000D01*
X190948600Y-112944200D02*
X191651700Y-112241100D01*
X191651700Y-112241100D02*
X191651700Y-110608300D01*
X184077400Y-118490100D02*
X189623200Y-112944300D01*
X189623200Y-112944200D02*
X190948600Y-112944200D01*
X189623200Y-112944300D02*
X189623200Y-112944200D01*
X191651700Y-110608300D02*
X193040000Y-109220000D01*
X177800000Y-134620000D02*
X184077400Y-128342600D01*
X184077400Y-128342600D02*
X184077400Y-118490100D01*
X189415500Y-110675500D02*
X189415500Y-110076600D01*
X111111700Y-89270700D02*
X111111700Y-108839500D01*
X107274700Y-70739500D02*
X107274700Y-85433700D01*
X107274700Y-85433700D02*
X111111700Y-89270700D01*
X190500000Y-111760000D02*
X189415500Y-110675500D01*
X81280000Y-68585000D02*
X81280000Y-73660000D01*
X120735100Y-152993700D02*
X120735100Y-152510600D01*
X123301100Y-155559700D02*
X120735100Y-152993700D01*
X109221500Y-115403200D02*
X109220000Y-115401700D01*
X109386300Y-127048100D02*
X109221500Y-126883300D01*
X109220000Y-114300000D02*
X109220000Y-115401700D01*
X123505000Y-155559700D02*
X123301100Y-155559700D01*
X120735100Y-152510600D02*
X109386300Y-141161800D01*
X109221500Y-126883300D02*
X109221500Y-115403200D01*
X109386300Y-127048100D02*
X109221500Y-126883300D01*
X109386300Y-141161800D02*
X109386300Y-127048100D01*
X97620200Y-130572200D02*
X97620200Y-127727500D01*
X96520000Y-106680000D02*
X96520000Y-107781700D01*
X97705100Y-108966800D02*
X96520000Y-107781700D01*
X100789300Y-133741300D02*
X97620200Y-130572200D01*
X97620200Y-127727500D02*
X97705100Y-127642600D01*
X100789300Y-151412000D02*
X100789300Y-133741300D01*
X97705100Y-127642600D02*
X97705100Y-108966800D01*
X117965100Y-152511600D02*
X117965100Y-152993700D01*
X117965100Y-152993700D02*
X120531100Y-155559700D01*
X106376900Y-115704800D02*
X106376900Y-130397700D01*
X106778600Y-141325100D02*
X117965100Y-152511600D01*
X120531100Y-155559700D02*
X120735000Y-155559700D01*
X106376900Y-130397700D02*
X106778600Y-130799400D01*
X106778600Y-130799400D02*
X106778600Y-141325100D01*
X106680000Y-114300000D02*
X106680000Y-115401700D01*
X106680000Y-115401700D02*
X106376900Y-115704800D01*
X175078600Y-116070700D02*
X176616400Y-114532900D01*
X171505900Y-118629800D02*
X171505900Y-132192400D01*
X176616400Y-114532900D02*
X176616400Y-105872500D01*
X171505900Y-132192400D02*
X170180000Y-133518300D01*
X170180000Y-134620000D02*
X170180000Y-133518300D01*
X176616400Y-105872500D02*
X177226000Y-105262900D01*
X171853800Y-118281900D02*
X171505900Y-118629800D01*
X174991400Y-116070700D02*
X175078600Y-116070700D01*
X184679200Y-138050300D02*
X184679200Y-119140800D01*
X190500000Y-143871100D02*
X184679200Y-138050300D01*
X125613800Y-119162600D02*
X125613800Y-106734800D01*
X125356000Y-119420400D02*
X125613800Y-119162600D01*
X190500000Y-144780000D02*
X190500000Y-143871100D01*
X125613800Y-106734800D02*
X124460000Y-105581000D01*
X124460000Y-105581000D02*
X124460000Y-101520000D01*
X172720000Y-68585000D02*
X172720000Y-77181900D01*
X173821700Y-99396600D02*
X173821700Y-80230800D01*
X173821700Y-80230800D02*
X171703800Y-80230800D01*
X154940000Y-81092500D02*
X154940000Y-78740000D01*
X172720000Y-101600000D02*
X172720000Y-100498300D01*
X173821700Y-78283600D02*
X173821700Y-80230800D01*
X172720000Y-77181900D02*
X173821700Y-78283600D01*
X172720000Y-100498300D02*
X173821700Y-99396600D01*
X154904300Y-81128200D02*
X154940000Y-81092500D01*
X53340000Y-106680000D02*
X53340000Y-107781700D01*
X178965900Y-122893500D02*
X178965900Y-112256000D01*
X133491600Y-94356700D02*
X133491600Y-101963800D01*
X176361700Y-125803400D02*
X177085900Y-125079200D01*
X133491600Y-101963800D02*
X133057000Y-102398400D01*
X137523800Y-119410800D02*
X139587100Y-117347500D01*
X177085900Y-124773500D02*
X178965900Y-122893500D01*
X178965900Y-111528600D02*
X178965900Y-103867600D01*
X158500000Y-102620000D02*
X165100000Y-109220000D01*
X176361700Y-127000000D02*
X176361700Y-125803400D01*
X132075000Y-39526900D02*
X135728100Y-43180000D01*
X193040000Y-142240000D02*
X193040000Y-141356800D01*
X178965900Y-103867600D02*
X177800000Y-102701700D01*
X177085900Y-125079200D02*
X177085900Y-124773500D01*
X135728100Y-92120200D02*
X133491600Y-94356700D01*
X139587100Y-117347500D02*
X139587100Y-105020600D01*
X88900000Y-134620000D02*
X88900000Y-133518300D01*
X86187800Y-117776500D02*
X86187800Y-130184600D01*
X154940000Y-101520000D02*
X156040000Y-102620000D01*
X193040000Y-141356800D02*
X194601200Y-139795600D01*
X135728100Y-43180000D02*
X135728100Y-92120200D01*
X132075000Y-38100000D02*
X132075000Y-39526900D01*
X86086200Y-113078100D02*
X86086200Y-117674900D01*
X139587100Y-105020600D02*
X138795600Y-104229100D01*
X87908600Y-131905400D02*
X87908600Y-132526900D01*
X86187800Y-130184600D02*
X87908600Y-131905400D01*
X156040000Y-102620000D02*
X158500000Y-102620000D01*
X193040000Y-99060000D02*
X194601200Y-100621200D01*
X172720000Y-133518300D02*
X175260000Y-130978300D01*
X178851300Y-112141400D02*
X178851300Y-111643200D01*
X175260000Y-127000000D02*
X176361700Y-127000000D01*
X175260000Y-127000000D02*
X175260000Y-128101700D01*
X178965900Y-112256000D02*
X178851300Y-112141400D01*
X177800000Y-101600000D02*
X177800000Y-102701700D01*
X54610000Y-109051700D02*
X53340000Y-107781700D01*
X87908600Y-132526900D02*
X88900000Y-133518300D01*
X172720000Y-134620000D02*
X172720000Y-133518300D01*
X175260000Y-130978300D02*
X175260000Y-128101700D01*
X194601200Y-100621200D02*
X194601200Y-139795600D01*
X86086200Y-117674900D02*
X86187800Y-117776500D01*
X178851300Y-111643200D02*
X178965900Y-111528600D01*
X189320500Y-67219500D02*
X189320500Y-98177600D01*
X132080000Y-109140000D02*
X132080000Y-106281600D01*
X189320500Y-98177600D02*
X188491300Y-99006800D01*
X190500000Y-66040000D02*
X189320500Y-67219500D01*
X132080000Y-106281600D02*
X137873000Y-100488600D01*
X182048200Y-82410900D02*
X182069000Y-82431700D01*
X124460000Y-83820000D02*
X124460000Y-82718300D01*
X112893100Y-52211900D02*
X114784700Y-52211900D01*
X153180400Y-80622100D02*
X152400000Y-79841700D01*
X175260000Y-53345000D02*
X175260000Y-54446700D01*
X153481300Y-85955900D02*
X153180400Y-85655000D01*
X127000000Y-107470400D02*
X125561700Y-106032100D01*
X123190000Y-70210400D02*
X123190000Y-77780200D01*
X175260000Y-54446700D02*
X182048200Y-61234900D01*
X114784700Y-52211900D02*
X115570000Y-52997200D01*
X123190000Y-81448300D02*
X124460000Y-82718300D01*
X115570000Y-52997200D02*
X115570000Y-62590400D01*
X153180400Y-85655000D02*
X153180400Y-80622100D01*
X152400000Y-78740000D02*
X152400000Y-79841700D01*
X124460000Y-83820000D02*
X124460000Y-84921700D01*
X111760000Y-53345000D02*
X112893100Y-52211900D01*
X125561700Y-106032100D02*
X125561700Y-86023400D01*
X182048200Y-61234900D02*
X182048200Y-82410900D01*
X127000000Y-109140000D02*
X127000000Y-108038300D01*
X115570000Y-62590400D02*
X123190000Y-70210400D01*
X125561700Y-86023400D02*
X124460000Y-84921700D01*
X123190000Y-77780200D02*
X123190000Y-81448300D01*
X127000000Y-108038300D02*
X127000000Y-107470400D01*
X107993500Y-107223100D02*
X107993500Y-106087400D01*
X122120000Y-152719700D02*
X110321700Y-140921400D01*
X107993500Y-106087400D02*
X107613900Y-105707800D01*
X110321700Y-140921400D02*
X110321700Y-109551300D01*
X110321700Y-109551300D02*
X107993500Y-107223100D01*
X120818300Y-81616600D02*
X120818300Y-70980700D01*
X123358300Y-106936600D02*
X123358300Y-87518600D01*
X121920000Y-83820000D02*
X121920000Y-84358000D01*
X121920000Y-83820000D02*
X121920000Y-82718300D01*
X121920000Y-84358000D02*
X124457200Y-86895200D01*
X187263400Y-62808400D02*
X187263400Y-75460000D01*
X124460000Y-108038300D02*
X123358300Y-106936600D01*
X121920000Y-82718300D02*
X120818300Y-81616600D01*
X123358300Y-87518600D02*
X122802500Y-86962800D01*
X177800000Y-53345000D02*
X187263400Y-62808400D01*
X114300000Y-64462400D02*
X114300000Y-53345000D01*
X120818300Y-70980700D02*
X114300000Y-64462400D01*
X124460000Y-109140000D02*
X124460000Y-108038300D01*
X168741700Y-76200000D02*
X170180000Y-77638300D01*
X170180000Y-78740000D02*
X170180000Y-79841700D01*
X170180000Y-80409700D02*
X170180000Y-79841700D01*
X104140000Y-53345000D02*
X104140000Y-54446700D01*
X70098300Y-96806800D02*
X61326800Y-105578300D01*
X168990300Y-128417000D02*
X168990300Y-81599400D01*
X100793700Y-80526500D02*
X105251200Y-76069000D01*
X167640000Y-54446700D02*
X168741700Y-55548400D01*
X58420000Y-106680000D02*
X59521700Y-105578300D01*
X168741700Y-55548400D02*
X168741700Y-76200000D01*
X81280000Y-81743800D02*
X70098300Y-92925500D01*
X70098300Y-92925500D02*
X70098300Y-96806800D01*
X168990300Y-81599400D02*
X170180000Y-80409700D01*
X86730000Y-112535100D02*
X86134200Y-111939300D01*
X88522300Y-132184600D02*
X88522300Y-131464500D01*
X59521700Y-105578300D02*
X61326800Y-105578300D01*
X88522300Y-131464500D02*
X86730000Y-129672200D01*
X105251200Y-55557900D02*
X104140000Y-54446700D01*
X86730000Y-129672200D02*
X86730000Y-112535100D01*
X105251200Y-76069000D02*
X105251200Y-55557900D01*
X167640000Y-53345000D02*
X167640000Y-54446700D01*
X168393900Y-129013400D02*
X168990300Y-128417000D01*
X81280000Y-81280000D02*
X81280000Y-81743800D01*
X170180000Y-78740000D02*
X170180000Y-77638300D01*
X186798700Y-100003600D02*
X186627200Y-99832100D01*
X186627200Y-99832100D02*
X186798700Y-100003600D01*
X186399900Y-63860400D02*
X186399900Y-99604800D01*
X186399900Y-99604800D02*
X186798700Y-100003600D01*
X147320000Y-95081700D02*
X146218300Y-96183400D01*
X174123700Y-55256800D02*
X178979400Y-60112500D01*
X146218300Y-93980000D02*
X144528600Y-95669700D01*
X118083000Y-89741300D02*
X118083000Y-82664100D01*
X115416800Y-66945300D02*
X109621700Y-61150200D01*
X147320000Y-93980000D02*
X146218300Y-93980000D01*
X178979400Y-83718300D02*
X177543600Y-85154100D01*
X119380000Y-91038300D02*
X118083000Y-89741300D01*
X119380000Y-96520000D02*
X119380000Y-91038300D01*
X144528600Y-95669700D02*
X144333900Y-95669700D01*
X178858000Y-71337800D02*
X178979400Y-71459200D01*
X115416800Y-79997900D02*
X115416800Y-66945300D01*
X178979400Y-60112500D02*
X178979400Y-70718200D01*
X117755800Y-82336900D02*
X115416800Y-79997900D01*
X178979400Y-70718200D02*
X178858000Y-70839600D01*
X146218300Y-106600000D02*
X144780000Y-108038300D01*
X147320000Y-93980000D02*
X147320000Y-95081700D01*
X109220000Y-53345000D02*
X109220000Y-54446700D01*
X178979400Y-71459200D02*
X178979400Y-83718300D01*
X144780000Y-109140000D02*
X144780000Y-108038300D01*
X146218300Y-96183400D02*
X146218300Y-106600000D01*
X118083000Y-82664100D02*
X117755800Y-82336900D01*
X109621700Y-61150200D02*
X109621700Y-54848400D01*
X109621700Y-54848400D02*
X109220000Y-54446700D01*
X178858000Y-70839600D02*
X178858000Y-71337800D01*
X188901200Y-60675300D02*
X188442900Y-60217000D01*
X141172700Y-59697300D02*
X142287900Y-58582100D01*
X188442900Y-54021700D02*
X186137000Y-51715800D01*
X142240000Y-108038300D02*
X142103400Y-108038300D01*
X108609600Y-56376300D02*
X108609600Y-56874800D01*
X147320000Y-105498300D02*
X147320000Y-101520000D01*
X142240000Y-109140000D02*
X142240000Y-108038300D01*
X149860000Y-109140000D02*
X149860000Y-108038300D01*
X193040000Y-86360000D02*
X194208700Y-85191300D01*
X141172700Y-59697300D02*
X139485800Y-58010400D01*
X193302000Y-62111700D02*
X190022900Y-62111700D01*
X190022900Y-62111700D02*
X188901200Y-60990000D01*
X149860000Y-108038300D02*
X147320000Y-105498300D01*
X141288500Y-107223400D02*
X141288500Y-103138400D01*
X106680000Y-53345000D02*
X106680000Y-54446700D01*
X140736600Y-102586500D02*
X140736600Y-99847300D01*
X188442900Y-60217000D02*
X188442900Y-54021700D01*
X142103400Y-108038300D02*
X141288500Y-107223400D01*
X194208700Y-85191300D02*
X194208700Y-63018400D01*
X141288500Y-103138400D02*
X140736600Y-102586500D01*
X141054200Y-99529700D02*
X141054200Y-59815800D01*
X140736600Y-99847300D02*
X141054200Y-99529700D01*
X106680000Y-54446700D02*
X108609600Y-56376300D01*
X194208700Y-63018400D02*
X193302000Y-62111700D01*
X188901200Y-60990000D02*
X188901200Y-60675300D01*
X141054200Y-59815800D02*
X141172700Y-59697300D01*
X188299500Y-60924500D02*
X188482200Y-61107200D01*
X188482200Y-61107200D02*
X188482200Y-94830500D01*
X191651700Y-79807200D02*
X191448900Y-80010000D01*
X193040000Y-66040000D02*
X191651700Y-67428300D01*
X106680000Y-68585000D02*
X106680000Y-69686700D01*
X191651700Y-67428300D02*
X191651700Y-79807200D01*
X159262400Y-100842400D02*
X159381300Y-100842400D01*
X106673000Y-69693700D02*
X106673000Y-80801900D01*
X106673000Y-80801900D02*
X103615400Y-83859500D01*
X103615400Y-83859500D02*
X103615400Y-94830500D01*
X153782100Y-83690000D02*
X153782100Y-73173200D01*
X106680000Y-69686700D02*
X106673000Y-69693700D01*
X154083000Y-92297000D02*
X154083000Y-83990900D01*
X153782100Y-73173200D02*
X151846700Y-71237800D01*
X152400000Y-93980000D02*
X159262400Y-100842400D01*
X152400000Y-93980000D02*
X154083000Y-92297000D01*
X154083000Y-83990900D02*
X153782100Y-83690000D01*
X121641100Y-132478300D02*
X120831200Y-133288200D01*
X121641100Y-131827800D02*
X121641100Y-132478300D01*
X121641100Y-131827800D02*
X123034600Y-130434300D01*
X123034600Y-107975800D02*
X121920000Y-106861200D01*
X121920000Y-106861200D02*
X121920000Y-101520000D01*
X123034600Y-130434300D02*
X123034600Y-107975800D01*
X91440000Y-53345000D02*
X92542800Y-52242200D01*
X88900000Y-96520000D02*
X88900000Y-93731700D01*
X94493800Y-52242200D02*
X95144500Y-52892900D01*
X179134000Y-91544300D02*
X177800000Y-92878300D01*
X90028400Y-78426700D02*
X90028400Y-55858300D01*
X91440000Y-53345000D02*
X91440000Y-54446700D01*
X154940000Y-60998400D02*
X154940000Y-53345000D01*
X73660000Y-134620000D02*
X73660000Y-127114600D01*
X182646800Y-115770200D02*
X182646800Y-93117100D01*
X95144500Y-52892900D02*
X95144500Y-56378400D01*
X92542800Y-52242200D02*
X94493800Y-52242200D01*
X73918100Y-126856500D02*
X72358300Y-125296700D01*
X182797800Y-115921200D02*
X182646800Y-115770200D01*
X177800000Y-93980000D02*
X177800000Y-92878300D01*
X72358300Y-125296700D02*
X72358300Y-109020000D01*
X182646800Y-93117100D02*
X181074000Y-91544300D01*
X156138200Y-62196600D02*
X154940000Y-60998400D01*
X71120000Y-106680000D02*
X71120000Y-107781700D01*
X73660000Y-127114600D02*
X73918100Y-126856500D01*
X95144500Y-56378400D02*
X94824400Y-56698500D01*
X72358300Y-109020000D02*
X71120000Y-107781700D01*
X156138200Y-91394100D02*
X156138200Y-62196600D01*
X88900000Y-93731700D02*
X89921700Y-92710000D01*
X156880000Y-92135900D02*
X156138200Y-91394100D01*
X90028400Y-55858300D02*
X91440000Y-54446700D01*
X181074000Y-91544300D02*
X179134000Y-91544300D01*
X89921700Y-78533400D02*
X90028400Y-78426700D01*
X89921700Y-92710000D02*
X89921700Y-78533400D01*
X68580000Y-81280000D02*
X68580000Y-84439600D01*
X111760000Y-85606200D02*
X111760000Y-68585000D01*
X111975900Y-85822100D02*
X111760000Y-85606200D01*
X116840000Y-108038300D02*
X116564600Y-108038300D01*
X111975900Y-86816900D02*
X111975900Y-85822100D01*
X116564600Y-108038300D02*
X111734700Y-103208400D01*
X111734700Y-88939500D02*
X111951200Y-88723000D01*
X111951200Y-86841600D02*
X111975900Y-86816900D01*
X68580000Y-84439600D02*
X70734200Y-86593800D01*
X111734700Y-103208400D02*
X111734700Y-88939500D01*
X116840000Y-109140000D02*
X116840000Y-108038300D01*
X111951200Y-88723000D02*
X111951200Y-86841600D01*
X116840000Y-89266500D02*
X116840000Y-84921700D01*
X114300000Y-80178300D02*
X116840000Y-82718300D01*
X114300000Y-68585000D02*
X114300000Y-80178300D01*
X118056000Y-106714300D02*
X118056000Y-90482500D01*
X177547300Y-69939400D02*
X177800000Y-69686700D01*
X116840000Y-83820000D02*
X116840000Y-84921700D01*
X116840000Y-83820000D02*
X116840000Y-82718300D01*
X119380000Y-109140000D02*
X119380000Y-108038300D01*
X177547300Y-74930000D02*
X177547300Y-69939400D01*
X177800000Y-68585000D02*
X177800000Y-69686700D01*
X118056000Y-90482500D02*
X116840000Y-89266500D01*
X119380000Y-108038300D02*
X118056000Y-106714300D01*
X182452100Y-118881700D02*
X183474200Y-117859600D01*
X82661300Y-95334700D02*
X82661300Y-110543200D01*
X82661300Y-110543200D02*
X82661300Y-126319600D01*
X166378000Y-55724700D02*
X165100000Y-54446700D01*
X96406800Y-71214200D02*
X96406800Y-82756200D01*
X97790000Y-69831000D02*
X96406800Y-71214200D01*
X183474200Y-76781700D02*
X182649900Y-75957400D01*
X100497200Y-52242200D02*
X98546300Y-52242200D01*
X168851000Y-77465200D02*
X166378000Y-74992200D01*
X183801200Y-116336700D02*
X183801200Y-115505700D01*
X101600000Y-53345000D02*
X100497200Y-52242200D01*
X97790000Y-52998500D02*
X97790000Y-69831000D01*
X83820000Y-127478300D02*
X83820000Y-134620000D01*
X83820000Y-94176000D02*
X82661300Y-95334700D01*
X182450600Y-128511700D02*
X182452100Y-128510200D01*
X165100000Y-53345000D02*
X165100000Y-54446700D01*
X183474200Y-116663700D02*
X183801200Y-116336700D01*
X183474200Y-115178700D02*
X183474200Y-76781700D01*
X98546300Y-52242200D02*
X97790000Y-52998500D01*
X182452100Y-128510200D02*
X182452100Y-118881700D01*
X183474200Y-117859600D02*
X183474200Y-116663700D01*
X82661300Y-126319600D02*
X83820000Y-127478300D01*
X166378000Y-74992200D02*
X166378000Y-55724700D01*
X183801200Y-115505700D02*
X183474200Y-115178700D01*
X83820000Y-81280000D02*
X83820000Y-94176000D01*
X166269800Y-76708900D02*
X166269800Y-81070500D01*
X166269800Y-81070500D02*
X165714200Y-81626100D01*
X101600000Y-77401100D02*
X99347600Y-79653500D01*
X99347600Y-79653500D02*
X99347600Y-92549400D01*
X165100000Y-68585000D02*
X165100000Y-69686700D01*
X101600000Y-68585000D02*
X101600000Y-77401100D01*
X165714200Y-81626100D02*
X165714200Y-92085000D01*
X165100000Y-69686700D02*
X165049200Y-69737500D01*
X165049200Y-75488300D02*
X166269800Y-76708900D01*
X99347600Y-92549400D02*
X97621900Y-94275100D01*
X165049200Y-69737500D02*
X165049200Y-75488300D01*
X96446300Y-94140700D02*
X97010700Y-93576300D01*
X160020000Y-92878300D02*
X161370100Y-91528200D01*
X53340000Y-121920000D02*
X53340000Y-120818300D01*
X160020000Y-93980000D02*
X160020000Y-92878300D01*
X96446300Y-94140700D02*
X95250000Y-95337000D01*
X64770000Y-102870000D02*
X64770000Y-109388300D01*
X64770000Y-109388300D02*
X53340000Y-120818300D01*
X161370100Y-91528200D02*
X161370100Y-70876600D01*
X97010700Y-93576300D02*
X97010700Y-71736000D01*
X95250000Y-95337000D02*
X95250000Y-129708300D01*
X161370100Y-70876600D02*
X162560000Y-69686700D01*
X91440000Y-134620000D02*
X91440000Y-133518300D01*
X99060000Y-68585000D02*
X99060000Y-69686700D01*
X162560000Y-68585000D02*
X162560000Y-69686700D01*
X71120000Y-96520000D02*
X64770000Y-102870000D01*
X95250000Y-129708300D02*
X91440000Y-133518300D01*
X97010700Y-71736000D02*
X99060000Y-69686700D01*
X139695000Y-38100000D02*
X138583700Y-39211300D01*
X138583700Y-39211300D02*
X138583700Y-51127000D01*
X138583700Y-51127000D02*
X139700000Y-52243300D01*
X139700000Y-52243300D02*
X139700000Y-53345000D01*
X174106200Y-100953800D02*
X174106200Y-116190400D01*
X175260000Y-78740000D02*
X175260000Y-77638300D01*
X176392300Y-80974000D02*
X176392300Y-98667700D01*
X100166900Y-78124800D02*
X98079600Y-80212100D01*
X98079600Y-80212100D02*
X98079600Y-80780100D01*
X100166900Y-55553600D02*
X100166900Y-78124800D01*
X176484200Y-118568400D02*
X176484200Y-124830000D01*
X176392300Y-98667700D02*
X174106200Y-100953800D01*
X99060000Y-54446700D02*
X100166900Y-55553600D01*
X174106200Y-116190400D02*
X176484200Y-118568400D01*
X175260000Y-78740000D02*
X175260000Y-79841700D01*
X86360000Y-81280000D02*
X86360000Y-82798300D01*
X86306600Y-106445400D02*
X86306600Y-108981800D01*
X79975400Y-132213700D02*
X79975400Y-125696200D01*
X86360000Y-82798300D02*
X87381700Y-83820000D01*
X99060000Y-53345000D02*
X99060000Y-54446700D01*
X174158300Y-57257500D02*
X172595200Y-55694400D01*
X81280000Y-134620000D02*
X81280000Y-133518300D01*
X79975400Y-125696200D02*
X79888900Y-125609700D01*
X81280000Y-133518300D02*
X79975400Y-132213700D01*
X175260000Y-77638300D02*
X174158300Y-76536600D01*
X174158300Y-76536600D02*
X174158300Y-57257500D01*
X79888900Y-125609700D02*
X79888900Y-109118000D01*
X175260000Y-79841700D02*
X176392300Y-80974000D01*
X87381700Y-105370300D02*
X86306600Y-106445400D01*
X87381700Y-83820000D02*
X87381700Y-105370300D01*
X66187800Y-123664100D02*
X64690800Y-122167100D01*
X64690800Y-122167100D02*
X64690800Y-120819800D01*
X64690800Y-120819800D02*
X64594300Y-120723300D01*
X94017900Y-94159800D02*
X94016600Y-94158500D01*
X67526600Y-125792000D02*
X67526600Y-124032300D01*
X67526600Y-124032300D02*
X67158400Y-123664100D01*
X60960000Y-134620000D02*
X60960000Y-132358600D01*
X93980000Y-68585000D02*
X93980000Y-94158500D01*
X163083500Y-57126900D02*
X163998300Y-58041700D01*
X94016600Y-94158500D02*
X93980000Y-94158500D01*
X162474500Y-56517900D02*
X163083500Y-57126900D01*
X157480000Y-68585000D02*
X157480000Y-61004300D01*
X163998300Y-58041700D02*
X163998300Y-91776600D01*
X163083500Y-57126900D02*
X164049200Y-56161200D01*
X157480000Y-61004300D02*
X161966400Y-56517900D01*
X92664800Y-120360100D02*
X92604700Y-120420200D01*
X93980000Y-94158500D02*
X92664800Y-95473700D01*
X161966400Y-56517900D02*
X162474500Y-56517900D01*
X60960000Y-132358600D02*
X67526600Y-125792000D01*
X92664800Y-95473700D02*
X92664800Y-120360100D01*
X165100000Y-93980000D02*
X165100000Y-92878300D01*
X67158400Y-123664100D02*
X66187800Y-123664100D01*
X163998300Y-91776600D02*
X165100000Y-92878300D01*
X190120200Y-107950000D02*
X185230100Y-112840100D01*
X183955800Y-116750100D02*
X184202900Y-116503000D01*
X181372500Y-129134200D02*
X182701600Y-129134200D01*
X183675700Y-118323800D02*
X183955800Y-118043700D01*
X193040000Y-106680000D02*
X191770000Y-107950000D01*
X180340000Y-128101700D02*
X181372500Y-129134200D01*
X183675700Y-128160100D02*
X183675700Y-118323800D01*
X182701600Y-129134200D02*
X183675700Y-128160100D01*
X184202900Y-116503000D02*
X184202900Y-113867300D01*
X191770000Y-107950000D02*
X190120200Y-107950000D01*
X180340000Y-127000000D02*
X180340000Y-128101700D01*
X184202900Y-113867300D02*
X185230100Y-112840100D01*
X183955800Y-118043700D02*
X183955800Y-116750100D01*
X165650900Y-75154400D02*
X168785400Y-78288900D01*
X58420000Y-133518300D02*
X58695400Y-133518300D01*
X78740000Y-96520000D02*
X78740000Y-97943400D01*
X168785400Y-81094900D02*
X167640000Y-82240300D01*
X66879000Y-125334700D02*
X66879000Y-124265900D01*
X155016000Y-69762700D02*
X155016000Y-70370700D01*
X168785400Y-78288900D02*
X168785400Y-81094900D01*
X78740000Y-97943400D02*
X77623400Y-99060000D01*
X82598500Y-68206900D02*
X83369100Y-67436300D01*
X58420000Y-134620000D02*
X58420000Y-133518300D01*
X154940000Y-68585000D02*
X154940000Y-69686700D01*
X154940000Y-68585000D02*
X154940000Y-61902100D01*
X77623400Y-123205300D02*
X77623400Y-99060000D01*
X154940000Y-69686700D02*
X155016000Y-69762700D01*
X154940000Y-61902100D02*
X154805100Y-61767200D01*
X83369100Y-67436300D02*
X84653500Y-67436300D01*
X78278700Y-96520000D02*
X82598500Y-92200200D01*
X165650900Y-70434300D02*
X165650900Y-75154400D01*
X58695400Y-133518300D02*
X66879000Y-125334700D01*
X78740000Y-96520000D02*
X78278700Y-96520000D01*
X76564400Y-124264300D02*
X77623400Y-123205300D01*
X82598500Y-92200200D02*
X82598500Y-68206900D01*
X167640000Y-82240300D02*
X167640000Y-93980000D01*
X86360000Y-53345000D02*
X86360000Y-54446700D01*
X69961300Y-104271500D02*
X69961300Y-124166600D01*
X68580000Y-134620000D02*
X68580000Y-133518300D01*
X122427700Y-115800400D02*
X117968500Y-120259600D01*
X84841700Y-70895600D02*
X85255200Y-70482100D01*
X76200000Y-99060000D02*
X75172800Y-99060000D01*
X69961300Y-124166600D02*
X69000000Y-125127900D01*
X75172800Y-99060000D02*
X73781400Y-100451400D01*
X117968500Y-120259600D02*
X117968500Y-124769800D01*
X116840000Y-127000000D02*
X116840000Y-125898300D01*
X83820000Y-96520000D02*
X83820000Y-95001700D01*
X76200000Y-106680000D02*
X71876400Y-102356400D01*
X180340000Y-96520000D02*
X180573400Y-96520000D01*
X180573400Y-96520000D02*
X181843400Y-97790000D01*
X86360000Y-55982700D02*
X86360000Y-54446700D01*
X83820000Y-95001700D02*
X84841700Y-93980000D01*
X85255200Y-55551500D02*
X86360000Y-54446700D01*
X69000000Y-125127900D02*
X69000000Y-133098300D01*
X85255200Y-70482100D02*
X85255200Y-55551500D01*
X73781400Y-100451400D02*
X71876400Y-102356400D01*
X84841700Y-93980000D02*
X84841700Y-70895600D01*
X69000000Y-133098300D02*
X68580000Y-133518300D01*
X181265700Y-113152800D02*
X181843400Y-112575100D01*
X181843400Y-112575100D02*
X181843400Y-97790000D01*
X71876400Y-102356400D02*
X69961300Y-104271500D01*
X75178300Y-99054500D02*
X73781400Y-100451400D01*
X117968500Y-124769800D02*
X116840000Y-125898300D01*
X175260000Y-134620000D02*
X174144000Y-135736000D01*
X50800000Y-106680000D02*
X51901700Y-107781700D01*
X150961700Y-97679800D02*
X150961700Y-80943400D01*
X169004600Y-135074000D02*
X169004600Y-129615100D01*
X148421700Y-55548400D02*
X148421700Y-76200000D01*
X148421700Y-76200000D02*
X149860000Y-77638300D01*
X163224400Y-126733900D02*
X163224400Y-111498400D01*
X170180000Y-127000000D02*
X170180000Y-128101700D01*
X51901700Y-107781700D02*
X51901700Y-125862100D01*
X53837500Y-127797900D02*
X53837500Y-132814000D01*
X149860000Y-78189100D02*
X149860000Y-78740000D01*
X153670000Y-100388100D02*
X150961700Y-97679800D01*
X169004600Y-129277100D02*
X169004600Y-129615100D01*
X150961700Y-80943400D02*
X149860000Y-79841700D01*
X166105600Y-129615100D02*
X163224400Y-126733900D01*
X169666600Y-135736000D02*
X169004600Y-135074000D01*
X153670000Y-101944000D02*
X153670000Y-100388100D01*
X149860000Y-78740000D02*
X149860000Y-79841700D01*
X149860000Y-78189100D02*
X149860000Y-77638300D01*
X169004600Y-129615100D02*
X166105600Y-129615100D01*
X147320000Y-53345000D02*
X147320000Y-54446700D01*
X174144000Y-135736000D02*
X169666600Y-135736000D01*
X163224400Y-111498400D02*
X153670000Y-101944000D01*
X170180000Y-128101700D02*
X169004600Y-129277100D01*
X51901700Y-125862100D02*
X53837500Y-127797900D01*
X147320000Y-54446700D02*
X148421700Y-55548400D01*
X158207900Y-107332800D02*
X151585900Y-107332800D01*
X162622700Y-111747600D02*
X162622700Y-128501000D01*
X162622700Y-111747600D02*
X158207900Y-107332800D01*
X162622700Y-128501000D02*
X167640000Y-133518300D01*
X167640000Y-134620000D02*
X167640000Y-133518300D01*
X116840000Y-69686700D02*
X117941700Y-70788400D01*
X120818300Y-106936600D02*
X120818300Y-86360000D01*
X119380000Y-83820000D02*
X119380000Y-84921700D01*
X116840000Y-68585000D02*
X116840000Y-69135800D01*
X121920000Y-109140000D02*
X121920000Y-108038300D01*
X116291800Y-69684000D02*
X116291800Y-72263100D01*
X116840000Y-69135800D02*
X116840000Y-69686700D01*
X120818300Y-86360000D02*
X119380000Y-84921700D01*
X117941700Y-70788400D02*
X117941700Y-81280000D01*
X119380000Y-83820000D02*
X119380000Y-82718300D01*
X117941700Y-81280000D02*
X119380000Y-82718300D01*
X121920000Y-108038300D02*
X120818300Y-106936600D01*
X116840000Y-69135800D02*
X116291800Y-69684000D01*
X182706000Y-138772300D02*
X179070000Y-142408300D01*
X191673900Y-92806100D02*
X193608900Y-92806100D01*
X182706000Y-134308500D02*
X182706000Y-138772300D01*
X193608900Y-92806100D02*
X196639200Y-95836400D01*
X190500000Y-93980000D02*
X191673900Y-92806100D01*
X179070000Y-143510000D02*
X179070000Y-142408300D01*
X196639200Y-95836400D02*
X196639200Y-133287100D01*
X88807400Y-121388200D02*
X88721300Y-121474300D01*
X152778700Y-91329300D02*
X153180400Y-91731000D01*
X81280000Y-122470800D02*
X81280000Y-121920000D01*
X80592700Y-123709000D02*
X81280000Y-123021700D01*
X151216000Y-70870700D02*
X151216000Y-80416600D01*
X87878300Y-105370200D02*
X88807400Y-106299300D01*
X81280000Y-96520000D02*
X81280000Y-97918900D01*
X87878300Y-80576800D02*
X87878300Y-105370200D01*
X152400000Y-68585000D02*
X152400000Y-67483300D01*
X88900000Y-79555100D02*
X87878300Y-80576800D01*
X154321100Y-49795400D02*
X154538200Y-49795400D01*
X81280000Y-122470800D02*
X81280000Y-123021700D01*
X81280000Y-121920000D02*
X81280000Y-109602100D01*
X151216000Y-80416600D02*
X152778700Y-81979300D01*
X152778700Y-81979300D02*
X152778700Y-91329300D01*
X80138900Y-108461000D02*
X80138900Y-99060000D01*
X81280000Y-97918900D02*
X80138900Y-99060000D01*
X80592700Y-129907200D02*
X80592700Y-123709000D01*
X81280000Y-109602100D02*
X80138900Y-108461000D01*
X152400000Y-69686700D02*
X151216000Y-70870700D01*
X152400000Y-67483300D02*
X151253200Y-66336500D01*
X88807400Y-106299300D02*
X88807400Y-121388200D01*
X151253200Y-66336500D02*
X151253200Y-52863300D01*
X152400000Y-69135800D02*
X152400000Y-69686700D01*
X151253200Y-52863300D02*
X154321100Y-49795400D01*
X88900000Y-68585000D02*
X88900000Y-79555100D01*
X152400000Y-69135800D02*
X152400000Y-68585000D01*
X191888300Y-139400400D02*
X191036200Y-138548300D01*
X189810400Y-138548300D02*
X188117400Y-140241300D01*
X193526400Y-145952100D02*
X192562700Y-145952100D01*
X193040000Y-93980000D02*
X195002900Y-95942900D01*
X195167700Y-107931400D02*
X195167700Y-144310800D01*
X195167700Y-107931400D02*
X195002900Y-107766600D01*
X195002900Y-95942900D02*
X195002900Y-107766600D01*
X191888300Y-145277700D02*
X191888300Y-139400400D01*
X192562700Y-145952100D02*
X191888300Y-145277700D01*
X195002900Y-107766600D02*
X195167700Y-107931400D01*
X195167700Y-144310800D02*
X193526400Y-145952100D01*
X191036200Y-138548300D02*
X189810400Y-138548300D01*
X150970800Y-124331100D02*
X148758300Y-126543600D01*
X144780000Y-73660000D02*
X144780000Y-74573100D01*
X148448500Y-78241600D02*
X148448500Y-103302500D01*
X148448500Y-103302500D02*
X150970900Y-105824900D01*
X144780000Y-74573100D02*
X148448500Y-78241600D01*
X150579800Y-111674900D02*
X150579800Y-112173100D01*
X148758300Y-126543600D02*
X148758300Y-127456400D01*
X151051100Y-129749200D02*
X151051100Y-135578200D01*
X150970800Y-112564100D02*
X150970800Y-124331100D01*
X145462600Y-66800700D02*
X145462600Y-65623300D01*
X144780000Y-67483300D02*
X145462600Y-66800700D01*
X148758300Y-127456400D02*
X151051100Y-129749200D01*
X144780000Y-68585000D02*
X144780000Y-73660000D01*
X150970900Y-111283800D02*
X150579800Y-111674900D01*
X150579800Y-112173100D02*
X150970800Y-112564100D01*
X151051100Y-135578200D02*
X150954300Y-135675000D01*
X150970900Y-105824900D02*
X150970900Y-111283800D01*
X144780000Y-68585000D02*
X144780000Y-67483300D01*
X67458500Y-123231200D02*
X67458500Y-102721500D01*
X73660000Y-96520000D02*
X72638300Y-96520000D01*
X67928300Y-126034900D02*
X67928300Y-123701000D01*
X63500000Y-130463200D02*
X67928300Y-126034900D01*
X193040000Y-55880000D02*
X191888300Y-57031700D01*
X72638300Y-97541700D02*
X72638300Y-96520000D01*
X67458500Y-102721500D02*
X72638300Y-97541700D01*
X95798000Y-70408700D02*
X96520000Y-69686700D01*
X96776100Y-66027200D02*
X96520000Y-66283300D01*
X191888300Y-57031700D02*
X189707100Y-57031700D01*
X160020000Y-59339300D02*
X160020000Y-68585000D01*
X96520000Y-68585000D02*
X96520000Y-69686700D01*
X189707100Y-57031700D02*
X189415500Y-56740100D01*
X95798000Y-93645800D02*
X95798000Y-70408700D01*
X63500000Y-134620000D02*
X63500000Y-130463200D01*
X96520000Y-66283300D02*
X96520000Y-68585000D01*
X67928300Y-123701000D02*
X67458500Y-123231200D01*
X162209300Y-57150000D02*
X160020000Y-59339300D01*
X129535000Y-45720000D02*
X129535000Y-52210800D01*
X129535000Y-52210800D02*
X127094200Y-54651600D01*
X183399500Y-116170400D02*
X183399500Y-115672000D01*
X183072500Y-92138800D02*
X180340000Y-89406300D01*
X124915400Y-124250500D02*
X124460000Y-124705900D01*
X157480000Y-57602000D02*
X156336300Y-58745700D01*
X93980000Y-54446700D02*
X92876700Y-55550000D01*
X92876700Y-56673200D02*
X92876700Y-77470000D01*
X183072500Y-115345000D02*
X183072500Y-92138800D01*
X157480000Y-53345000D02*
X157480000Y-57602000D01*
X90329000Y-129952400D02*
X90329000Y-103705100D01*
X124460000Y-124705900D02*
X124460000Y-127000000D01*
X91440000Y-82709000D02*
X90329000Y-83820000D01*
X91440000Y-81280000D02*
X91440000Y-78906700D01*
X91440000Y-78906700D02*
X92876700Y-77470000D01*
X93980000Y-53345000D02*
X93980000Y-54446700D01*
X183072500Y-116497400D02*
X183399500Y-116170400D01*
X180561800Y-123257200D02*
X182050400Y-121768600D01*
X91440000Y-81280000D02*
X91440000Y-82709000D01*
X183399500Y-115672000D02*
X183072500Y-115345000D01*
X180340000Y-89406300D02*
X180340000Y-78740000D01*
X91498800Y-131122200D02*
X90329000Y-129952400D01*
X92876700Y-55550000D02*
X92876700Y-56673200D01*
X90329000Y-103705100D02*
X90329000Y-83820000D01*
X182050400Y-118115400D02*
X183072500Y-117093300D01*
X182050400Y-121768600D02*
X182050400Y-118115400D01*
X179453000Y-123257200D02*
X180561800Y-123257200D01*
X183072500Y-117093300D02*
X183072500Y-116497400D01*
X121751700Y-66045000D02*
X120650000Y-66045000D01*
X122853400Y-67146700D02*
X121751700Y-66045000D01*
X133181700Y-67146700D02*
X122853400Y-67146700D01*
X134620000Y-68585000D02*
X133181700Y-67146700D01*
X128270000Y-125730000D02*
X128270000Y-135890000D01*
X124460000Y-121920000D02*
X128270000Y-125730000D01*
X128270000Y-135890000D02*
X135890000Y-143510000D01*
X129392950Y-124312950D02*
X130957050Y-124312950D01*
X133350000Y-137160000D02*
X135890000Y-139700000D01*
X127000000Y-121920000D02*
X129392950Y-124312950D01*
X130957050Y-124312950D02*
X133350000Y-126705900D01*
X133350000Y-126705900D02*
X133350000Y-137160000D01*
X109220000Y-45720000D02*
X109220000Y-46821700D01*
X108108700Y-47933000D02*
X108108700Y-55171200D01*
X108108700Y-55171200D02*
X109219900Y-56282400D01*
X109220000Y-46821700D02*
X108108700Y-47933000D01*
X110490000Y-64315000D02*
X110490000Y-85409300D01*
X109219900Y-63044900D02*
X110490000Y-64315000D01*
X109219900Y-56282400D02*
X109219900Y-63044900D01*
X110490000Y-85409300D02*
X111369800Y-86289100D01*
X139714500Y-135317200D02*
X143137000Y-138739700D01*
X135892900Y-126710500D02*
X135892900Y-129254700D01*
X135892900Y-129254700D02*
X139814500Y-133176300D01*
X151103700Y-143156400D02*
X151103700Y-146023700D01*
X151103700Y-146023700D02*
X152400000Y-147320000D01*
X143561400Y-138598300D02*
X146545600Y-138598300D01*
X134766200Y-125583800D02*
X135892900Y-126710500D01*
X143137000Y-138739700D02*
X143420000Y-138739700D01*
X129540000Y-121920000D02*
X133203800Y-125583800D01*
X139814500Y-133176300D02*
X139814500Y-135017400D01*
X146545600Y-138598300D02*
X151103700Y-143156400D01*
X139814500Y-135017400D02*
X139714500Y-135117400D01*
X133203800Y-125583800D02*
X134766200Y-125583800D01*
X143420000Y-138739700D02*
X143561400Y-138598300D01*
X139714500Y-135117400D02*
X139714500Y-135317200D01*
X177351100Y-48514500D02*
X176386900Y-48514500D01*
X187697800Y-58861200D02*
X177351100Y-48514500D01*
X187697800Y-73660000D02*
X187697800Y-58861200D01*
X190500000Y-104140000D02*
X187878900Y-101518900D01*
X187878900Y-101518900D02*
X187878900Y-73841100D01*
X187878900Y-73841100D02*
X187697800Y-73660000D01*
X176659700Y-55243300D02*
X183902600Y-62486200D01*
X176659700Y-49616000D02*
X176659700Y-55243300D01*
X183902600Y-62486200D02*
X183902600Y-105955100D01*
X177130700Y-49145000D02*
X176659700Y-49616000D01*
X183902600Y-105955100D02*
X187129600Y-109182100D01*
X140216200Y-135183700D02*
X140216100Y-135183800D01*
X147086600Y-138196600D02*
X152400000Y-143510000D01*
X140216100Y-135250800D02*
X143237200Y-138271900D01*
X143395100Y-138196600D02*
X147086600Y-138196600D01*
X140216200Y-133010000D02*
X140216200Y-135183700D01*
X136294600Y-126134600D02*
X136294600Y-129088400D01*
X140216100Y-135183800D02*
X140216100Y-135250800D01*
X143237200Y-138271900D02*
X143319800Y-138271900D01*
X143319800Y-138271900D02*
X143395100Y-138196600D01*
X132080000Y-121920000D02*
X136294600Y-126134600D01*
X136294600Y-129088400D02*
X140216200Y-133010000D01*
X128428700Y-106927000D02*
X129540000Y-108038300D01*
X129540000Y-108038300D02*
X129540000Y-109140000D01*
X128428700Y-100994300D02*
X128428700Y-106927000D01*
X132080000Y-97343000D02*
X128428700Y-100994300D01*
X132080000Y-96520000D02*
X132080000Y-97343000D01*
X193981600Y-138192700D02*
X194199500Y-137974800D01*
X191816300Y-102916300D02*
X190500000Y-101600000D01*
X193434100Y-105410000D02*
X192643700Y-105410000D01*
X194199500Y-137974800D02*
X194199500Y-106175400D01*
X194199500Y-106175400D02*
X193434100Y-105410000D01*
X191816300Y-104582600D02*
X191816300Y-102916300D01*
X192643700Y-105410000D02*
X191816300Y-104582600D01*
X134620000Y-115401700D02*
X136922100Y-117703800D01*
X142588800Y-137055500D02*
X149755500Y-137055500D01*
X134620000Y-114300000D02*
X134620000Y-115401700D01*
X149755500Y-137055500D02*
X152400000Y-139700000D01*
X141026100Y-128480200D02*
X141026100Y-135492800D01*
X141026100Y-135492800D02*
X142588800Y-137055500D01*
X136922100Y-117703800D02*
X136922100Y-124376200D01*
X136922100Y-124376200D02*
X141026100Y-128480200D01*
X102955900Y-71164900D02*
X102955900Y-40640000D01*
X104140000Y-39455900D02*
X102955900Y-40640000D01*
X104140000Y-38100000D02*
X104140000Y-39455900D01*
X126995000Y-38100000D02*
X126995000Y-43180000D01*
X126995000Y-43180000D02*
X124455000Y-45720000D01*
X166320400Y-94754200D02*
X166320400Y-81729300D01*
X166320400Y-81729300D02*
X167640000Y-80409700D01*
X157480000Y-101520000D02*
X159554600Y-101520000D01*
X167640000Y-80409700D02*
X167640000Y-79841700D01*
X159554600Y-101520000D02*
X166320400Y-94754200D01*
X167640000Y-78740000D02*
X167640000Y-79841700D01*
X141890200Y-106974300D02*
X141890200Y-102971900D01*
X142040100Y-99313300D02*
X142040100Y-78726500D01*
X141138300Y-100215100D02*
X142040100Y-99313300D01*
X141890200Y-102971900D02*
X141138300Y-102220000D01*
X141138300Y-102220000D02*
X141138300Y-100215100D01*
X78740000Y-38100000D02*
X86360000Y-45720000D01*
X185425900Y-38624700D02*
X173990000Y-50060600D01*
X171281700Y-80659500D02*
X171281700Y-112096600D01*
X171281700Y-112096600D02*
X170180000Y-113198300D01*
X171102100Y-79981700D02*
X171102100Y-80479900D01*
X172995400Y-54643600D02*
X172769500Y-54643600D01*
X173990000Y-50060600D02*
X173990000Y-53649000D01*
X172769500Y-54643600D02*
X171281700Y-56131400D01*
X170180000Y-115738300D02*
X170180000Y-114300000D01*
X171102100Y-80479900D02*
X171281700Y-80659500D01*
X171281700Y-79802100D02*
X171102100Y-79981700D01*
X187313000Y-38624700D02*
X185425900Y-38624700D01*
X173990000Y-53649000D02*
X172995400Y-54643600D01*
X171281700Y-56131400D02*
X171281700Y-79802100D01*
X187313000Y-38624700D02*
X190500000Y-41811700D01*
X170180000Y-114300000D02*
X170180000Y-113198300D01*
X175260000Y-121920000D02*
X175260000Y-120818300D01*
X175260000Y-120818300D02*
X170180000Y-115738300D01*
X190500000Y-41811700D02*
X190500000Y-48260000D01*
X124460000Y-87769400D02*
X123051700Y-86361100D01*
X120649300Y-84244500D02*
X120649300Y-83237900D01*
X122765900Y-86361100D02*
X120649300Y-84244500D01*
X120649300Y-83237900D02*
X119380000Y-81968600D01*
X124460000Y-88900000D02*
X124460000Y-87798300D01*
X124460000Y-87798300D02*
X124460000Y-87769400D01*
X119380000Y-81968600D02*
X119380000Y-76200000D01*
X123051700Y-86361100D02*
X122765900Y-86361100D01*
X134620000Y-88900000D02*
X134620000Y-87798300D01*
X134226000Y-80036200D02*
X133518300Y-80743900D01*
X133518300Y-86696600D02*
X134620000Y-87798300D01*
X133518300Y-80743900D02*
X133518300Y-86696600D01*
X141138300Y-127456400D02*
X141783600Y-128101700D01*
X142604400Y-128808400D02*
X142604400Y-133153900D01*
X144780000Y-121920000D02*
X144780000Y-122901900D01*
X142240000Y-134620000D02*
X142240000Y-133518300D01*
X142604400Y-133153900D02*
X142240000Y-133518300D01*
X141783600Y-128101700D02*
X141897700Y-128101700D01*
X144780000Y-122901900D02*
X141138300Y-126543600D01*
X141897700Y-128101700D02*
X142604400Y-128808400D01*
X141138300Y-126543600D02*
X141138300Y-127456400D01*
X146218300Y-116503400D02*
X146218300Y-132080000D01*
X147320000Y-115401700D02*
X146218300Y-116503400D01*
X146218300Y-132080000D02*
X144780000Y-133518300D01*
X147320000Y-114300000D02*
X147320000Y-115401700D01*
X144780000Y-134620000D02*
X144780000Y-133518300D01*
X154940000Y-114300000D02*
X154940000Y-115401700D01*
X158592700Y-119054400D02*
X158592700Y-130163700D01*
X154940000Y-115401700D02*
X158592700Y-119054400D01*
X158592700Y-130163700D02*
X156669800Y-132086600D01*
X151251200Y-126099900D02*
X152400000Y-124951100D01*
X151817200Y-132769100D02*
X151817200Y-129268400D01*
X152400000Y-124951100D02*
X152400000Y-121920000D01*
X151251200Y-128702400D02*
X151251200Y-126099900D01*
X151817200Y-129268400D02*
X151251200Y-128702400D01*
X125898300Y-133518300D02*
X121451900Y-133518300D01*
X121451900Y-133518300D02*
X121451900Y-133518400D01*
X113030000Y-122208000D02*
X111025700Y-120203700D01*
X113030000Y-127295300D02*
X113030000Y-122208000D01*
X111025700Y-120203700D02*
X111025700Y-109604300D01*
X109220000Y-107798600D02*
X109220000Y-106680000D01*
X120210500Y-133518300D02*
X119253000Y-133518300D01*
X120582100Y-133889900D02*
X120210500Y-133518300D01*
X119253000Y-133518300D02*
X113030000Y-127295300D01*
X127000000Y-134620000D02*
X125898300Y-133518300D01*
X111025700Y-109604300D02*
X109220000Y-107798600D01*
X121080400Y-133889900D02*
X120582100Y-133889900D01*
X121451900Y-133518400D02*
X121080400Y-133889900D01*
X109160500Y-110262200D02*
X109160500Y-112386900D01*
X156378300Y-125898300D02*
X156378300Y-119030000D01*
X156378300Y-119030000D02*
X153811600Y-116463300D01*
X153811600Y-114130900D02*
X151604700Y-111924000D01*
X157480000Y-127000000D02*
X156378300Y-125898300D01*
X106680000Y-106680000D02*
X106680000Y-107781700D01*
X151604700Y-111924000D02*
X151181500Y-111924000D01*
X106680000Y-107781700D02*
X109160500Y-110262200D01*
X153811600Y-116463300D02*
X153811600Y-114130900D01*
X177800000Y-109220000D02*
X177800000Y-108118300D01*
X177800000Y-104140000D02*
X177800000Y-104986000D01*
X177800000Y-108118300D02*
X177827700Y-108090600D01*
X177827700Y-108090600D02*
X177827700Y-105013700D01*
X175260000Y-101600000D02*
X177800000Y-104140000D01*
X177827700Y-105013700D02*
X177800000Y-104986000D01*
X181441700Y-103803400D02*
X181441700Y-109903600D01*
X180340000Y-102701700D02*
X181441700Y-103803400D01*
X181441700Y-109903600D02*
X179453000Y-111892300D01*
X180340000Y-101600000D02*
X180340000Y-102701700D01*
X115572200Y-123895900D02*
X114300000Y-125168100D01*
X166511600Y-123693400D02*
X166157900Y-124047100D01*
X166511600Y-103220900D02*
X166511600Y-123693400D01*
X166648900Y-103083600D02*
X166511600Y-103220900D01*
X114300000Y-125168100D02*
X114300000Y-127000000D01*
X132080000Y-115401700D02*
X136465700Y-119787400D01*
X136465700Y-124865600D02*
X138359100Y-126759000D01*
X136465700Y-119787400D02*
X136465700Y-124865600D01*
X132080000Y-114300000D02*
X132080000Y-115401700D01*
X149034500Y-136334500D02*
X152298700Y-136334500D01*
X147320000Y-134620000D02*
X149034500Y-136334500D01*
X152298700Y-136334500D02*
X153570600Y-135062600D01*
X153570600Y-135062600D02*
X153570600Y-122840900D01*
X142240000Y-72508300D02*
X143411000Y-71337300D01*
X143411000Y-71337300D02*
X143411000Y-46106900D01*
X142240000Y-73660000D02*
X142240000Y-72508300D01*
X143411000Y-46106900D02*
X141845200Y-44541100D01*
X193040000Y-137160000D02*
X191888300Y-136008300D01*
X101600000Y-107781700D02*
X105410000Y-111591700D01*
X101600000Y-106680000D02*
X101600000Y-107781700D01*
X190247200Y-136008300D02*
X187962400Y-133723500D01*
X78740000Y-121920000D02*
X78740000Y-120818300D01*
X105975200Y-115395200D02*
X105975200Y-131203200D01*
X105410000Y-111591700D02*
X105410000Y-114830000D01*
X105410000Y-114830000D02*
X105975200Y-115395200D01*
X79119100Y-109885900D02*
X79119100Y-120439200D01*
X79119100Y-120439200D02*
X78740000Y-120818300D01*
X191888300Y-136008300D02*
X190247200Y-136008300D01*
X105975200Y-131203200D02*
X106176900Y-131404900D01*
X187962400Y-133723500D02*
X187962400Y-132721800D01*
M02*
